<?xml version="1.0" encoding="UTF-8" standalone="no"?>
<!DOCTYPE svg PUBLIC "-//W3C//DTD SVG 1.1//EN" "http://www.w3.org/Graphics/SVG/1.1/DTD/svg11.dtd">
<svg version="1.1" xmlns="http://www.w3.org/2000/svg" xmlns:xlink="http://www.w3.org/1999/xlink" preserveAspectRatio="xMidYMid meet" viewBox="0 0 640 640" width="35" height="35"><defs><path d="M490 40C572.84 40 640 107.16 640 190C640 280 640 400 640 490C640 572.84 572.84 640 490 640C400 640 280 640 190 640C107.16 640 40 572.84 40 490C40 400 40 280 40 190C40 107.16 107.16 40 190 40C280 40 400 40 490 40Z" id="e1ZBWlQ7oO"></path><path d="M450 0C532.84 0 600 67.16 600 150C600 240 600 360 600 450C600 532.84 532.84 600 450 600C360 600 240 600 150 600C67.16 600 0 532.84 0 450C0 360 0 240 0 150C0 67.16 67.16 0 150 0C240 0 360 0 450 0Z" id="b3MIcNylJJ"></path><linearGradient id="gradienta2KiQq5aJQ" gradientUnits="userSpaceOnUse" x1="555.81" y1="59.8" x2="45.39" y2="569.38"><stop style="stop-color: #c27aff;stop-opacity: 1" offset="0%"></stop><stop style="stop-color: #2b2e38;stop-opacity: 1" offset="100%"></stop><stop style="stop-color: #010000;stop-opacity: 1" offset="100%"></stop></linearGradient><clipPath id="clipaVrVmWNJU"><use xlink:href="#b3MIcNylJJ" opacity="1"></use></clipPath><path d="M302.04 44.08C159.57 44.08 44.08 159.57 44.08 302.04C44.08 444.51 159.57 560 302.04 560C444.51 560 560 444.51 560 302.04C560 159.57 444.51 44.08 302.04 44.08Z" id="b1qJuaiRCH"></path><path d="M254.83 234.96L286.79 234.96L267.05 351.52L235.09 351.52L254.83 234.96Z" id="a27rWoKfCz"></path><path d="M352.17 233.08C320.59 233.08 298.34 248.9 298.15 271.55C297.98 288.3 314.03 297.64 326.16 303.22C338.6 308.92 342.78 312.58 342.72 317.67C342.65 325.48 332.79 329.06 323.6 329.06C310.81 329.05 304.01 327.29 293.51 322.94C293.24 322.81 291.86 322.2 289.39 321.08C286.7 336.74 285.2 345.44 284.9 347.18C292.37 350.43 306.18 353.25 320.51 353.4C354.1 353.39 375.92 337.77 376.17 313.57C376.29 300.31 367.77 290.22 349.33 281.9C338.16 276.52 331.31 272.92 331.39 267.45C331.39 262.61 337.18 257.43 349.69 257.43C360.14 257.27 367.72 259.53 373.62 261.9C373.81 261.98 374.76 262.43 376.48 263.24L380.82 237.98L380.82 237.98C369.98 234.71 360.43 233.08 352.17 233.08Z" id="e2PSNwMfqL"></path><path d="M459.75 234.97L486.07 351.53L455.99 351.53L452.23 333.66L411.81 333.66L405.23 351.53L371.39 351.53L418.75 244.89L418.93 244.51L419.11 244.14L419.31 243.78L419.53 243.42L419.75 243.07L419.98 242.73L420.23 242.39L420.49 242.06L420.77 241.74L421.05 241.42L421.35 241.11L421.66 240.81L421.98 240.51L422.31 240.22L422.66 239.94L423.02 239.66L423.39 239.39L423.77 239.12L424.17 238.86L424.57 238.61L424.99 238.37L425.43 238.13L425.87 237.9L426.33 237.67L426.8 237.45L427.28 237.24L427.77 237.04L428.28 236.84L428.8 236.65L429.33 236.46L429.87 236.28L430.43 236.11L430.99 235.94L431.57 235.78L432.16 235.63L432.77 235.48L433.38 235.34L434.01 235.21L434.65 235.08L435.31 234.96L435.31 234.97L459.75 234.97ZM437.31 267.84L437.07 268.47L436.82 269.12L436.57 269.77L436.32 270.44L436.06 271.1L435.81 271.76L435.56 272.41L435.31 273.04L435.07 273.66L434.84 274.25L434.63 274.82L434.42 275.34L434.23 275.83L434.06 276.28L433.91 276.68L433.77 277.02L433.67 277.31L433.58 277.53L433.53 277.68L433.5 277.76L433.51 277.76L420.78 310.34L420.78 310.34L447.31 310.34L447.12 309.46L446.87 308.36L446.59 307.05L446.26 305.57L445.9 303.93L445.52 302.17L445.11 300.31L444.68 298.37L444.24 296.38L443.8 294.36L443.35 292.34L442.91 290.33L442.48 288.37L442.07 286.48L441.67 284.69L441.31 283.02L440.97 281.48L440.67 280.12L440.41 278.95L440.2 278L440.05 277.29L439.91 276.69L437.75 266.64L437.53 267.23L437.31 267.84Z" id="e1uybyYznn"></path><path d="M174 298.88C168.17 280.26 150.06 260.1 129.78 250C131.66 256.77 141.07 290.61 158.01 351.52L191.86 351.52L242.62 234.96L208.78 234.96L176.81 314.86C175.12 305.27 174.19 299.95 174 298.88Z" id="a6EdnWyDYV"></path><path d="M95.04 236.84C135.14 246.49 162.98 270.87 174 298.88C172.84 293.49 163.57 250.31 162.41 244.91C160.48 237.53 154.62 235.22 147.68 234.96C144.17 234.96 126.62 234.96 95.04 234.96L95.04 234.96C95.04 236.09 95.04 236.72 95.04 236.84Z" id="bjuCerFrg"></path><path d="M530.92 420.96C485.14 420.96 118.91 420.96 73.13 420.96C116.13 503.56 202.46 560 302.02 560C401.59 560 487.92 503.56 530.92 420.96Z" id="i1AsRw2yt5"></path><path d="M75.14 179.15C120.52 179.15 483.53 179.15 528.91 179.15C485.23 98.69 400.01 44.05 302.02 44.05C204.03 44.05 118.81 98.68 75.14 179.15Z" id="c5FLD6RrEf"></path></defs><g><g><g><use xlink:href="#e1ZBWlQ7oO" opacity="0.8" fill="#454545" fill-opacity="1"></use></g><g><use xlink:href="#b3MIcNylJJ" opacity="1" fill="url(#gradienta2KiQq5aJQ)"></use><g clip-path="url(#clipaVrVmWNJU)"><use xlink:href="#b3MIcNylJJ" opacity="1" fill-opacity="0" stroke="#dbdbdb" stroke-width="20" stroke-opacity="1"></use></g></g><g><use xlink:href="#b1qJuaiRCH" opacity="1" fill="#f3f2f2" fill-opacity="1"></use><g><use xlink:href="#b1qJuaiRCH" opacity="1" fill-opacity="0" stroke="#000000" stroke-width="1" stroke-opacity="0"></use></g></g><g><use xlink:href="#a27rWoKfCz" opacity="1" fill="#293688" fill-opacity="1"></use><g><use xlink:href="#a27rWoKfCz" opacity="1" fill-opacity="0" stroke="#000000" stroke-width="1" stroke-opacity="0"></use></g></g><g><use xlink:href="#e2PSNwMfqL" opacity="1" fill="#293688" fill-opacity="1"></use><g><use xlink:href="#e2PSNwMfqL" opacity="1" fill-opacity="0" stroke="#000000" stroke-width="1" stroke-opacity="0"></use></g></g><g><use xlink:href="#e1uybyYznn" opacity="1" fill="#293688" fill-opacity="1"></use><g><use xlink:href="#e1uybyYznn" opacity="1" fill-opacity="0" stroke="#000000" stroke-width="1" stroke-opacity="0"></use></g></g><g><use xlink:href="#a6EdnWyDYV" opacity="1" fill="#293688" fill-opacity="1"></use><g><use xlink:href="#a6EdnWyDYV" opacity="1" fill-opacity="0" stroke="#000000" stroke-width="1" stroke-opacity="0"></use></g></g><g><use xlink:href="#bjuCerFrg" opacity="1" fill="#f7981d" fill-opacity="1"></use><g><use xlink:href="#bjuCerFrg" opacity="1" fill-opacity="0" stroke="#000000" stroke-width="1" stroke-opacity="0"></use></g></g><g><use xlink:href="#i1AsRw2yt5" opacity="1" fill="#f7981d" fill-opacity="1"></use><g><use xlink:href="#i1AsRw2yt5" opacity="1" fill-opacity="0" stroke="#000000" stroke-width="1" stroke-opacity="0"></use></g></g><g><use xlink:href="#c5FLD6RrEf" opacity="1" fill="#293688" fill-opacity="1"></use><g><use xlink:href="#c5FLD6RrEf" opacity="1" fill-opacity="0" stroke="#000000" stroke-width="1" stroke-opacity="0"></use></g></g></g></g></svg>