<?xml version="1.0" encoding="UTF-8" standalone="no"?>
<!DOCTYPE svg PUBLIC "-//W3C//DTD SVG 1.1//EN" "http://www.w3.org/Graphics/SVG/1.1/DTD/svg11.dtd">
<svg version="1.1" xmlns="http://www.w3.org/2000/svg" xmlns:xlink="http://www.w3.org/1999/xlink" preserveAspectRatio="xMidYMid meet" viewBox="0 0 640 640" width="35" height="35"><defs><path d="M470 20C552.84 20 620 87.16 620 170C620 260 620 380 620 470C620 552.84 552.84 620 470 620C380 620 260 620 170 620C87.16 620 20 552.84 20 470C20 380 20 260 20 170C20 87.16 87.16 20 170 20C260 20 380 20 470 20Z" id="anG2MIif6"></path><path d="M450 0C532.84 0 600 67.16 600 150C600 240 600 360 600 450C600 532.84 532.84 600 450 600C360 600 240 600 150 600C67.16 600 0 532.84 0 450C0 360 0 240 0 150C0 67.16 67.16 0 150 0C240 0 360 0 450 0Z" id="c1CqSE1JVi"></path><linearGradient id="gradientb3N14qbYFn" gradientUnits="userSpaceOnUse" x1="555.81" y1="59.8" x2="45.39" y2="569.38"><stop style="stop-color: #a7fc6f;stop-opacity: 1" offset="0%"></stop><stop style="stop-color: #2b2e38;stop-opacity: 1" offset="100%"></stop><stop style="stop-color: #010000;stop-opacity: 1" offset="100%"></stop></linearGradient><clipPath id="clipan34qaJ0R"><use xlink:href="#c1CqSE1JVi" opacity="1"></use></clipPath><path d="M313.11 497.43C313.11 497.43 313.11 497.43 313.11 497.43C412.52 497.43 493.11 444.06 493.11 378.22C493.11 311.99 443.11 259.01 476.66 212.65C476.66 212.65 423.11 219.28 393.11 272.26C393.11 272.26 293.11 206.03 334.89 113.31C334.89 113.31 233.11 139.8 243.75 225.9C252.88 299.73 233.11 311.99 233.11 311.99C233.11 252.39 162.74 225.9 162.74 225.9C183.11 298.75 133.11 318.62 133.11 378.22C133.11 444.06 213.7 497.43 313.11 497.43Z" id="aoZpGAaTy"></path><mask id="maskb25SIOL2X1" x="93.11" y="73.31" width="440" height="464.12" maskUnits="userSpaceOnUse"><rect x="93.11" y="73.31" width="440" height="464.12" fill="white"></rect><use xlink:href="#aoZpGAaTy" opacity="1" fill="black"></use></mask><path d="M309.76 496.09C239.55 495.19 187.32 459.81 192.9 413.6C195.39 392.98 219.06 359.57 257.68 325.74C260.25 326.78 280.85 335.03 283.42 336.06C282.59 294.26 312.49 238.71 312.49 238.71C332.12 297.24 441.96 312.41 441.96 405.44C441.96 454.85 384.35 497.04 309.76 496.09Z" id="b4gkkstnO"></path><mask id="maska3gB9yNrY9" x="186.49" y="232.71" width="261.47" height="269.39" maskUnits="userSpaceOnUse"><rect x="186.49" y="232.71" width="261.47" height="269.39" fill="white"></rect><use xlink:href="#b4gkkstnO" opacity="1" fill="black"></use></mask><path d="M232.76 443.3C232.76 469.7 268.46 496.1 312.49 496.1C312.49 496.1 312.49 496.1 312.49 496.1C356.83 496.1 392.33 472.11 392.21 442.74C391.87 363.85 322.45 324.51 322.45 324.51C332.42 364.11 302.52 383.91 302.52 383.91C290.07 371.54 262.66 364.11 262.66 364.11C252.69 403.71 232.76 418.12 232.76 443.3Z" id="a2L7oaIw9H"></path></defs><g><g><g><use xlink:href="#anG2MIif6" opacity="0.8" fill="#454545" fill-opacity="1"></use></g><g><use xlink:href="#c1CqSE1JVi" opacity="1" fill="url(#gradientb3N14qbYFn)"></use><g clip-path="url(#clipan34qaJ0R)"><use xlink:href="#c1CqSE1JVi" opacity="1" fill-opacity="0" stroke="#dbdbdb" stroke-width="20" stroke-opacity="1"></use></g></g><g><use xlink:href="#aoZpGAaTy" opacity="1" fill="#ffb446" fill-opacity="1"></use><g mask="url(#maskb25SIOL2X1)"><use xlink:href="#aoZpGAaTy" opacity="1" fill-opacity="0" stroke="#f80000" stroke-width="40" stroke-opacity="1"></use></g></g><g><use xlink:href="#b4gkkstnO" opacity="1" fill="#ffdc64" fill-opacity="1"></use><g mask="url(#maska3gB9yNrY9)"><use xlink:href="#b4gkkstnO" opacity="1" fill-opacity="0" stroke="#000000" stroke-width="6" stroke-opacity="0"></use></g></g><g><use xlink:href="#a2L7oaIw9H" opacity="1" fill="#ffffff" fill-opacity="1"></use><g><use xlink:href="#a2L7oaIw9H" opacity="1" fill-opacity="0" stroke="#000000" stroke-width="3" stroke-opacity="0"></use></g></g></g></g></svg>