<?xml version="1.0" encoding="UTF-8" standalone="no"?>
<!DOCTYPE svg PUBLIC "-//W3C//DTD SVG 1.1//EN" "http://www.w3.org/Graphics/SVG/1.1/DTD/svg11.dtd">
<svg version="1.1" xmlns="http://www.w3.org/2000/svg" xmlns:xlink="http://www.w3.org/1999/xlink" preserveAspectRatio="xMidYMid meet" viewBox="0 0 640 640" width="35" height="35"><defs><path d="M490 40C572.84 40 640 107.16 640 190C640 280 640 400 640 490C640 572.84 572.84 640 490 640C400 640 280 640 190 640C107.16 640 40 572.84 40 490C40 400 40 280 40 190C40 107.16 107.16 40 190 40C280 40 400 40 490 40Z" id="b1uRL63fIo"></path><path d="M450 0C532.84 0 600 67.16 600 150C600 240 600 360 600 450C600 532.84 532.84 600 450 600C360 600 240 600 150 600C67.16 600 0 532.84 0 450C0 360 0 240 0 150C0 67.16 67.16 0 150 0C240 0 360 0 450 0Z" id="a16ELwXMX2"></path><linearGradient id="gradientc2awpZWFW" gradientUnits="userSpaceOnUse" x1="555.81" y1="59.8" x2="45.39" y2="569.38"><stop style="stop-color: #ff5077;stop-opacity: 1" offset="0%"></stop><stop style="stop-color: #2b2e38;stop-opacity: 1" offset="100%"></stop><stop style="stop-color: #010000;stop-opacity: 1" offset="100%"></stop></linearGradient><clipPath id="clipb8CQ7vuz4k"><use xlink:href="#a16ELwXMX2" opacity="1"></use></clipPath><path d="M249.59 163.12L213.78 127.31L263.91 127.31L242.43 84.34L292.56 105.82L306.88 70.01L328.37 105.82L364.18 84.34L349.86 127.31L399.99 127.31L364.18 163.12" id="a487FDeokB"></path><path d="M278.24 270.55C278.24 253.36 278.24 243.81 278.24 241.9C278.24 210.26 252.58 184.61 220.94 184.61C213.78 184.61 156.48 184.61 149.32 184.61C117.68 184.61 92.03 210.26 92.03 241.9C92.03 248.72 92.03 303.23 92.03 310.04C92.03 348.96 107.48 386.27 135 413.79C135 414.74 135 419.52 135 428.11L249.59 428.11L249.59 413.79C273.16 393.16 286.26 381.7 288.88 379.41C300.32 369.4 306.88 354.93 306.88 339.72C306.88 335.67 306.88 303.25 306.88 299.2C306.88 283.38 294.06 270.55 278.24 270.55C262.42 270.55 249.59 283.38 249.59 299.2C249.59 300.15 249.59 304.93 249.59 313.52" id="a1HbrR4SJo"></path><path d="M225.64 184.8L227.95 185.03L230.23 185.36L232.49 185.77L234.71 186.27L236.9 186.86L239.05 187.53L241.17 188.28L243.24 189.11L245.28 190.02L247.27 191L249.22 192.06L251.12 193.19L252.97 194.39L254.78 195.66L256.53 197L258.23 198.4L259.87 199.86L261.45 201.39L262.98 202.97L264.44 204.61L265.84 206.31L267.18 208.06L268.45 209.87L269.65 211.72L270.78 213.62L271.84 215.57L272.82 217.56L273.73 219.6L274.56 221.68L275.32 223.79L275.98 225.94L276.57 228.13L277.07 230.35L277.49 232.61L277.81 234.89L278.05 237.2L278.19 239.54L278.24 241.9L92.03 241.9L92.07 239.54L92.22 237.2L92.45 234.89L92.78 232.61L93.19 230.35L93.69 228.13L94.28 225.94L94.95 223.79L95.7 221.68L96.53 219.6L97.44 217.56L98.42 215.57L99.48 213.62L100.61 211.72L101.81 209.87L103.08 208.06L104.42 206.31L105.82 204.61L107.28 202.97L108.81 201.39L110.39 199.86L112.04 198.4L113.73 197L115.48 195.66L117.29 194.39L119.14 193.19L121.04 192.06L122.99 191L124.98 190.02L127.02 189.11L129.1 188.28L131.21 187.53L133.37 186.86L135.55 186.27L137.78 185.77L140.03 185.36L142.31 185.03L144.62 184.8L146.96 184.65L149.32 184.61L220.94 184.61L223.3 184.65L225.64 184.8Z" id="c1pl57yRb"></path><path d="M335.53 270.55C335.53 253.36 335.53 243.81 335.53 241.9C335.53 210.26 361.19 184.61 392.83 184.61C399.99 184.61 457.28 184.61 464.45 184.61C496.09 184.61 521.74 210.26 521.74 241.9C521.74 248.72 521.74 303.23 521.74 310.04C521.74 348.96 506.29 386.28 478.77 413.79C478.77 414.74 478.77 419.52 478.77 428.11L364.18 428.11L364.18 413.79C340.61 393.16 327.51 381.7 324.89 379.41C313.44 369.4 306.88 354.93 306.88 339.72C306.88 335.67 306.88 303.25 306.88 299.2C306.88 283.38 319.71 270.55 335.53 270.55C351.35 270.55 364.18 283.38 364.18 299.2C364.18 300.15 364.18 304.93 364.18 313.52" id="bj0MkJ4Ax"></path><path d="M469.15 184.8L471.46 185.03L473.74 185.36L475.99 185.77L478.21 186.27L480.4 186.86L482.56 187.53L484.67 188.28L486.75 189.11L488.78 190.02L490.78 191L492.72 192.06L494.63 193.19L496.48 194.39L498.28 195.66L500.03 197L501.73 198.4L503.37 199.86L504.96 201.39L506.48 202.97L507.95 204.61L509.35 206.31L510.69 208.06L511.96 209.87L513.16 211.72L514.29 213.62L515.35 215.57L516.33 217.56L517.24 219.6L518.07 221.68L518.82 223.79L519.49 225.94L520.08 228.13L520.58 230.35L520.99 232.61L521.32 234.89L521.55 237.2L521.69 239.54L521.74 241.9L335.53 241.9L335.58 239.54L335.72 237.2L335.96 234.89L336.28 232.61L336.7 230.35L337.2 228.13L337.78 225.94L338.45 223.79L339.2 221.68L340.03 219.6L340.94 217.56L341.93 215.57L342.99 213.62L344.12 211.72L345.32 209.87L346.59 208.06L347.92 206.31L349.32 204.61L350.79 202.97L352.31 201.39L353.9 199.86L355.54 198.4L357.24 197L358.99 195.66L360.79 194.39L362.65 193.19L364.55 192.06L366.5 191L368.49 190.02L370.53 189.11L372.6 188.28L374.72 187.53L376.87 186.86L379.06 186.27L381.28 185.77L383.53 185.36L385.82 185.03L388.13 184.8L390.47 184.65L392.83 184.61L464.45 184.61L466.81 184.65L469.15 184.8Z" id="f4RPvpOXl6"></path><path d="M349.86 499.73L349.86 428.11L493.09 428.11L493.09 499.73L349.86 499.73Z" id="bXBLjnGmc"></path><path d="M349.86 499.73L349.86 428.11L471.61 428.11L471.61 499.73L349.86 499.73Z" id="a2JKjNHR3F"></path><path d="M120.67 499.73L120.67 428.11L263.91 428.11L263.91 499.73L120.67 499.73Z" id="b8HSt9zpD"></path><path d="M120.67 499.73L120.67 428.11L242.43 428.11L242.43 499.73L120.67 499.73Z" id="b2uIxT3fob"></path><path d="M220.94 499.73L220.94 456.76L263.91 456.76L263.91 499.73L220.94 499.73Z" id="bIvXUUrbp"></path><path d="M220.94 499.73L220.94 456.76L242.43 456.76L242.43 499.73L220.94 499.73Z" id="a1Qx3QVa8y"></path><path d="M349.86 499.73L349.86 456.76L392.83 456.76L392.83 499.73L349.86 499.73Z" id="cH4PIj6ex"></path><path d="M349.86 499.73L349.86 456.76L371.34 456.76L371.34 499.73L349.86 499.73Z" id="bMxc0R0bT"></path><path d="M264.5 420.97L264.79 421L265.07 421.04L265.36 421.09L265.63 421.16L265.91 421.23L266.18 421.31L266.44 421.41L266.7 421.51L266.95 421.62L267.2 421.75L267.45 421.88L267.68 422.02L267.92 422.17L268.14 422.33L268.36 422.5L268.57 422.67L268.78 422.85L268.98 423.04L269.17 423.24L269.35 423.45L269.53 423.66L269.69 423.88L269.85 424.1L270 424.34L270.14 424.57L270.27 424.82L270.4 425.07L270.51 425.32L270.62 425.58L270.71 425.84L270.79 426.11L270.87 426.39L270.93 426.67L270.98 426.95L271.02 427.23L271.05 427.52L271.07 427.82L271.07 428.11L271.07 499.73L271.07 500.03L271.05 500.32L271.02 500.61L270.98 500.89L270.93 501.17L270.87 501.45L270.79 501.73L270.71 501.99L270.62 502.26L270.51 502.52L270.4 502.77L270.27 503.02L270.14 503.27L270 503.5L269.85 503.74L269.69 503.96L269.53 504.18L269.35 504.39L269.17 504.6L268.98 504.8L268.78 504.99L268.57 505.17L268.36 505.34L268.14 505.51L267.92 505.67L267.68 505.82L267.45 505.96L267.2 506.09L266.95 506.22L266.7 506.33L266.44 506.43L266.18 506.53L265.91 506.61L265.63 506.68L265.36 506.75L265.07 506.8L264.79 506.84L264.5 506.87L264.21 506.89L263.91 506.89L120.67 506.89L120.38 506.89L120.09 506.87L119.8 506.84L119.51 506.8L119.23 506.75L118.95 506.68L118.68 506.61L118.41 506.53L118.15 506.43L117.89 506.33L117.63 506.22L117.38 506.09L117.14 505.96L116.9 505.82L116.67 505.67L116.45 505.51L116.23 505.34L116.01 505.17L115.81 504.99L115.61 504.8L115.42 504.6L115.24 504.39L115.06 504.18L114.89 503.96L114.74 503.74L114.59 503.5L114.44 503.27L114.31 503.02L114.19 502.77L114.08 502.52L113.97 502.26L113.88 501.99L113.79 501.73L113.72 501.45L113.66 501.17L113.61 500.89L113.57 500.61L113.54 500.32L113.52 500.03L113.51 499.73L113.51 428.11L113.52 427.82L113.54 427.52L113.57 427.23L113.61 426.95L113.66 426.67L113.72 426.39L113.79 426.11L113.88 425.84L113.97 425.58L114.08 425.32L114.19 425.07L114.31 424.82L114.44 424.57L114.59 424.34L114.74 424.1L114.89 423.88L115.06 423.66L115.24 423.45L115.42 423.24L115.61 423.04L115.81 422.85L116.01 422.67L116.23 422.5L116.45 422.33L116.67 422.17L116.9 422.02L117.14 421.88L117.38 421.75L117.63 421.62L117.89 421.51L118.15 421.41L118.41 421.31L118.68 421.23L118.95 421.16L119.23 421.09L119.51 421.04L119.8 421L120.09 420.97L120.38 420.95L120.67 420.95L263.91 420.95L264.21 420.95L264.5 420.97ZM127.84 492.57L256.75 492.57L256.75 435.27L127.84 435.27L127.84 492.57Z" id="eYGWlqUmf"></path><path d="M338.46 263.51L339.91 263.65L341.33 263.86L342.74 264.12L344.13 264.43L345.49 264.8L346.84 265.21L348.16 265.68L349.46 266.2L350.73 266.77L351.98 267.39L353.19 268.05L354.38 268.76L355.54 269.51L356.67 270.3L357.76 271.14L358.82 272.02L359.85 272.93L360.84 273.89L361.8 274.88L362.71 275.9L363.59 276.97L364.42 278.06L365.22 279.19L365.97 280.35L366.68 281.53L367.34 282.75L367.95 284L368.52 285.27L369.04 286.57L369.51 287.89L369.93 289.23L370.3 290.6L370.61 291.99L370.87 293.39L371.08 294.82L371.22 296.26L371.31 297.72L371.34 299.2L371.34 313.52L357.02 313.52L357.02 299.2L357 298.31L356.95 297.44L356.86 296.57L356.74 295.72L356.58 294.87L356.39 294.04L356.17 293.22L355.92 292.41L355.64 291.62L355.33 290.84L354.99 290.08L354.62 289.33L354.22 288.6L353.79 287.89L353.34 287.19L352.87 286.51L352.37 285.86L351.84 285.22L351.29 284.6L350.72 284.01L350.12 283.44L349.51 282.89L348.87 282.36L348.21 281.86L347.54 281.38L346.84 280.93L346.13 280.51L345.4 280.11L344.65 279.74L343.89 279.4L343.11 279.09L342.32 278.81L341.51 278.56L340.69 278.34L339.86 278.15L339.01 277.99L338.16 277.87L337.29 277.78L336.42 277.73L335.53 277.71L334.65 277.73L333.77 277.78L332.91 277.87L332.05 277.99L331.21 278.15L330.38 278.34L329.56 278.56L328.75 278.81L327.96 279.09L327.18 279.4L326.41 279.74L325.67 280.11L324.94 280.51L324.22 280.93L323.53 281.38L322.85 281.86L322.19 282.36L321.56 282.89L320.94 283.44L320.35 284.01L319.77 284.6L319.23 285.22L318.7 285.86L318.2 286.51L317.72 287.19L317.27 287.89L316.85 288.6L316.45 289.33L316.08 290.08L315.74 290.84L315.43 291.62L315.14 292.41L314.89 293.22L314.67 294.04L314.48 294.87L314.33 295.72L314.21 296.57L314.12 297.44L314.06 298.31L314.05 299.2L314.05 339.72L314.06 340.71L314.09 341.69L314.14 342.67L314.21 343.64L314.31 344.61L314.42 345.58L314.56 346.55L314.71 347.51L314.89 348.46L315.09 349.41L315.3 350.35L315.54 351.29L315.79 352.22L316.07 353.15L316.36 354.07L316.68 354.98L317.01 355.88L317.36 356.78L317.73 357.67L318.12 358.55L318.53 359.43L318.95 360.29L319.4 361.15L319.86 361.99L320.34 362.83L320.84 363.65L321.35 364.47L321.89 365.28L322.44 366.07L323.01 366.86L323.59 367.63L324.19 368.39L324.81 369.14L325.45 369.87L326.1 370.6L326.77 371.31L327.46 372L328.16 372.69L328.88 373.36L329.61 374.02L368.9 408.39L369.02 408.5L369.13 408.6L369.24 408.71L369.34 408.82L369.45 408.93L369.55 409.05L369.65 409.16L369.75 409.28L369.84 409.4L369.93 409.52L370.02 409.65L370.11 409.77L370.19 409.9L370.27 410.03L370.35 410.16L370.43 410.29L370.5 410.42L370.57 410.56L370.64 410.69L370.7 410.83L370.76 410.97L370.82 411.11L370.87 411.25L370.93 411.39L370.98 411.53L371.02 411.68L371.07 411.82L371.11 411.97L371.14 412.12L371.18 412.27L371.21 412.42L371.24 412.57L371.26 412.72L371.28 412.87L371.3 413.02L371.31 413.17L371.33 413.32L371.33 413.48L371.34 413.63L371.34 413.79L371.34 428.11L357.02 428.11L357.02 417.04L320.17 384.8L319.21 383.94L318.26 383.06L317.34 382.16L316.44 381.24L315.56 380.3L314.7 379.35L313.87 378.38L313.05 377.4L312.26 376.4L311.49 375.38L310.75 374.35L310.02 373.31L309.32 372.25L308.64 371.18L307.99 370.09L307.36 368.99L306.75 367.88L306.17 366.75L305.61 365.62L305.07 364.47L304.56 363.31L304.08 362.14L303.61 360.96L303.18 359.77L302.77 358.57L302.38 357.37L302.02 356.15L301.68 354.92L301.37 353.69L301.09 352.45L300.83 351.2L300.6 349.95L300.4 348.69L300.22 347.42L300.07 346.15L299.94 344.87L299.85 343.59L299.78 342.31L299.74 341.02L299.72 339.72L299.72 299.2L299.75 297.72L299.84 296.26L299.99 294.82L300.19 293.39L300.45 291.99L300.76 290.6L301.13 289.23L301.55 287.89L302.02 286.57L302.54 285.27L303.11 284L303.73 282.75L304.39 281.53L305.09 280.35L305.85 279.19L306.64 278.06L307.48 276.97L308.35 275.9L309.27 274.88L310.22 273.89L311.21 272.93L312.24 272.02L313.3 271.14L314.4 270.3L315.52 269.51L316.68 268.76L317.87 268.05L319.09 267.39L320.33 266.77L321.61 266.2L322.9 265.68L324.23 265.21L325.57 264.8L326.94 264.43L328.32 264.12L329.73 263.86L331.16 263.65L332.6 263.51L334.06 263.42L335.53 263.39L337.01 263.42L338.46 263.51Z" id="hCVcfWoh5"></path><path d="M469.72 177.66L472.32 177.92L474.89 178.29L477.42 178.76L479.92 179.32L482.38 179.98L484.8 180.73L487.18 181.58L489.51 182.52L491.8 183.54L494.04 184.65L496.23 185.84L498.37 187.11L500.46 188.47L502.49 189.89L504.46 191.4L506.37 192.98L508.22 194.62L510 196.34L511.72 198.13L513.37 199.97L514.95 201.88L516.45 203.86L517.88 205.88L519.23 207.97L520.51 210.11L521.7 212.3L522.81 214.54L523.83 216.83L524.77 219.17L525.61 221.55L526.37 223.97L527.03 226.43L527.59 228.93L528.06 231.46L528.43 234.02L528.69 236.62L528.85 239.25L528.9 241.9L528.9 310.04L528.88 313.05L528.79 316.04L528.65 319.03L528.45 322L528.19 324.96L527.88 327.91L527.52 330.85L527.1 333.77L526.62 336.68L526.09 339.58L525.5 342.46L524.86 345.33L524.17 348.18L523.42 351.01L522.62 353.83L521.77 356.62L520.86 359.4L519.9 362.16L518.89 364.9L517.82 367.62L516.7 370.31L515.53 372.99L514.31 375.64L513.04 378.27L511.72 380.88L510.34 383.46L508.92 386.02L507.45 388.55L505.92 391.06L504.35 393.53L502.73 395.99L501.05 398.41L499.33 400.8L497.56 403.17L495.74 405.51L493.88 407.81L491.96 410.08L490 412.33L487.99 414.54L485.93 416.71L485.93 428.11L471.61 428.11L471.61 413.79L471.61 413.64L471.61 413.5L471.62 413.36L471.63 413.22L471.64 413.08L471.66 412.94L471.68 412.8L471.7 412.66L471.72 412.52L471.75 412.38L471.78 412.24L471.81 412.11L471.84 411.97L471.88 411.83L471.92 411.7L471.96 411.57L472 411.43L472.05 411.3L472.1 411.17L472.15 411.04L472.21 410.91L472.26 410.79L472.32 410.66L472.39 410.54L472.45 410.41L472.52 410.29L472.59 410.17L472.66 410.05L472.73 409.93L472.81 409.81L472.89 409.7L472.97 409.58L473.06 409.47L473.14 409.36L473.23 409.25L473.32 409.14L473.41 409.03L473.51 408.93L473.61 408.82L473.71 408.72L475.66 406.73L477.57 404.7L479.44 402.65L481.26 400.56L483.03 398.44L484.76 396.3L486.44 394.12L488.08 391.92L489.67 389.68L491.21 387.42L492.71 385.14L494.16 382.83L495.56 380.49L496.92 378.13L498.22 375.74L499.48 373.33L500.69 370.9L501.85 368.45L502.96 365.97L504.03 363.48L505.04 360.96L506 358.42L506.92 355.87L507.78 353.29L508.6 350.7L509.36 348.09L510.07 345.46L510.73 342.82L511.34 340.16L511.9 337.48L512.41 334.79L512.86 332.09L513.26 329.37L513.61 326.65L513.9 323.91L514.15 321.15L514.34 318.39L514.47 315.62L514.55 312.84L514.58 310.04L514.58 241.9L514.54 239.84L514.41 237.8L514.21 235.78L513.92 233.78L513.56 231.81L513.12 229.87L512.61 227.96L512.02 226.07L511.36 224.22L510.63 222.41L509.84 220.63L508.98 218.88L508.05 217.18L507.06 215.51L506.01 213.89L504.9 212.31L503.73 210.78L502.5 209.29L501.22 207.86L499.88 206.47L498.49 205.13L497.06 203.85L495.57 202.62L494.04 201.45L492.46 200.34L490.84 199.29L489.17 198.3L487.47 197.37L485.72 196.51L483.94 195.71L482.13 194.99L480.28 194.33L478.39 193.74L476.48 193.23L474.54 192.79L472.57 192.42L470.57 192.14L468.55 191.93L466.51 191.81L464.45 191.77L392.83 191.77L390.76 191.81L388.72 191.93L386.7 192.14L384.71 192.42L382.74 192.79L380.79 193.23L378.88 193.74L377 194.33L375.15 194.99L373.33 195.71L371.55 196.51L369.81 197.37L368.1 198.3L366.44 199.29L364.82 200.34L363.24 201.45L361.7 202.62L360.22 203.85L358.78 205.13L357.39 206.47L356.06 207.86L354.78 209.29L353.55 210.78L352.38 212.31L351.27 213.89L350.22 215.51L349.22 217.18L348.3 218.88L347.44 220.63L346.64 222.41L345.91 224.22L345.25 226.07L344.67 227.96L344.15 229.87L343.71 231.81L343.35 233.78L343.07 235.78L342.86 237.8L342.74 239.84L342.69 241.9L342.69 270.55L328.37 270.55L328.37 241.9L328.42 239.25L328.58 236.62L328.85 234.02L329.22 231.46L329.68 228.93L330.25 226.43L330.91 223.97L331.66 221.55L332.51 219.17L333.44 216.83L334.47 214.54L335.58 212.3L336.77 210.11L338.04 207.97L339.39 205.88L340.82 203.86L342.33 201.88L343.91 199.97L345.55 198.13L347.27 196.34L349.06 194.62L350.9 192.98L352.82 191.4L354.79 189.89L356.82 188.47L358.9 187.11L361.04 185.84L363.23 184.65L365.47 183.54L367.76 182.52L370.1 181.58L372.48 180.73L374.9 179.98L377.36 179.32L379.85 178.76L382.39 178.29L384.95 177.92L387.55 177.66L390.17 177.5L392.83 177.44L464.45 177.44L467.1 177.5L469.72 177.66Z" id="blufOJbbr"></path><path d="M493.68 420.97L493.97 421L494.26 421.04L494.54 421.09L494.82 421.16L495.09 421.23L495.36 421.31L495.62 421.41L495.88 421.51L496.14 421.62L496.39 421.75L496.63 421.88L496.87 422.02L497.1 422.17L497.32 422.33L497.54 422.5L497.75 422.67L497.96 422.85L498.16 423.04L498.35 423.24L498.53 423.45L498.71 423.66L498.87 423.88L499.03 424.1L499.18 424.34L499.32 424.57L499.46 424.82L499.58 425.07L499.69 425.32L499.8 425.58L499.89 425.84L499.97 426.11L500.05 426.39L500.11 426.67L500.16 426.95L500.2 427.23L500.23 427.52L500.25 427.82L500.26 428.11L500.26 499.73L500.25 500.03L500.23 500.32L500.2 500.61L500.16 500.89L500.11 501.17L500.05 501.45L499.97 501.73L499.89 501.99L499.8 502.26L499.69 502.52L499.58 502.77L499.46 503.02L499.32 503.27L499.18 503.5L499.03 503.74L498.87 503.96L498.71 504.18L498.53 504.39L498.35 504.6L498.16 504.8L497.96 504.99L497.75 505.17L497.54 505.34L497.32 505.51L497.1 505.67L496.87 505.82L496.63 505.96L496.39 506.09L496.14 506.22L495.88 506.33L495.62 506.43L495.36 506.53L495.09 506.61L494.82 506.68L494.54 506.75L494.26 506.8L493.97 506.84L493.68 506.87L493.39 506.89L493.09 506.89L349.86 506.89L349.56 506.89L349.27 506.87L348.98 506.84L348.69 506.8L348.41 506.75L348.14 506.68L347.86 506.61L347.59 506.53L347.33 506.43L347.07 506.33L346.81 506.22L346.57 506.09L346.32 505.96L346.08 505.82L345.85 505.67L345.63 505.51L345.41 505.34L345.2 505.17L344.99 504.99L344.79 504.8L344.6 504.6L344.42 504.39L344.24 504.18L344.08 503.96L343.92 503.74L343.77 503.5L343.63 503.27L343.49 503.02L343.37 502.77L343.26 502.52L343.15 502.26L343.06 501.99L342.98 501.73L342.9 501.45L342.84 501.17L342.79 500.89L342.75 500.61L342.72 500.32L342.7 500.03L342.69 499.73L342.69 428.11L342.7 427.82L342.72 427.52L342.75 427.23L342.79 426.95L342.84 426.67L342.9 426.39L342.98 426.11L343.06 425.84L343.15 425.58L343.26 425.32L343.37 425.07L343.49 424.82L343.63 424.57L343.77 424.34L343.92 424.1L344.08 423.88L344.24 423.66L344.42 423.45L344.6 423.24L344.79 423.04L344.99 422.85L345.2 422.67L345.41 422.5L345.63 422.33L345.85 422.17L346.08 422.02L346.32 421.88L346.57 421.75L346.81 421.62L347.07 421.51L347.33 421.41L347.59 421.31L347.86 421.23L348.14 421.16L348.41 421.09L348.69 421.04L348.98 421L349.27 420.97L349.56 420.95L349.86 420.95L493.09 420.95L493.39 420.95L493.68 420.97ZM357.02 492.57L485.93 492.57L485.93 435.27L357.02 435.27L357.02 492.57Z" id="atkrhvRUc"></path><path d="M335.53 249.06L335.53 234.74L521.74 234.74L521.74 249.06L335.53 249.06Z" id="bwFyJUUwt"></path><path d="M393.43 449.62L393.73 449.65L394.02 449.69L394.31 449.75L394.59 449.81L394.87 449.89L395.15 449.98L395.42 450.08L395.68 450.19L395.94 450.31L396.19 450.43L396.44 450.57L396.68 450.72L396.92 450.88L397.15 451.04L397.37 451.22L397.58 451.4L397.79 451.59L397.99 451.79L398.18 452L398.36 452.21L398.54 452.44L398.71 452.66L398.86 452.9L399.01 453.14L399.15 453.39L399.28 453.64L399.4 453.9L399.51 454.17L399.61 454.44L399.69 454.71L399.77 454.99L399.84 455.28L399.89 455.57L399.93 455.86L399.96 456.16L399.98 456.46L399.99 456.76L399.99 499.73L385.67 499.73L385.67 463.92L349.86 463.92L349.86 449.6L392.83 449.6L393.13 449.6L393.43 449.62Z" id="i6drH7JmmZ"></path><path d="M281.17 263.51L282.61 263.65L284.04 263.86L285.44 264.12L286.83 264.43L288.2 264.8L289.54 265.21L290.87 265.68L292.16 266.2L293.43 266.77L294.68 267.39L295.9 268.05L297.09 268.76L298.24 269.51L299.37 270.3L300.47 271.14L301.53 272.02L302.56 272.93L303.55 273.89L304.5 274.88L305.42 275.9L306.29 276.97L307.13 278.06L307.92 279.19L308.67 280.35L309.38 281.53L310.04 282.75L310.66 284L311.23 285.27L311.75 286.57L312.22 287.89L312.64 289.23L313 290.6L313.32 291.99L313.58 293.39L313.78 294.82L313.93 296.26L314.02 297.72L314.05 299.2L314.05 339.72L314.03 341.02L313.99 342.31L313.92 343.59L313.82 344.87L313.7 346.15L313.55 347.42L313.37 348.69L313.17 349.95L312.94 351.2L312.68 352.45L312.39 353.69L312.08 354.92L311.75 356.15L311.39 357.37L311 358.57L310.59 359.77L310.15 360.96L309.69 362.14L309.21 363.31L308.69 364.47L308.16 365.62L307.6 366.75L307.02 367.88L306.41 368.99L305.78 370.09L305.12 371.18L304.45 372.25L303.74 373.31L303.02 374.35L302.27 375.38L301.51 376.4L300.71 377.4L299.9 378.38L299.06 379.35L298.21 380.3L297.33 381.24L296.43 382.16L295.51 383.06L294.56 383.94L293.6 384.8L256.75 417.04L256.75 428.11L242.43 428.11L242.43 413.79L242.43 413.63L242.43 413.48L242.44 413.32L242.45 413.17L242.47 413.02L242.49 412.87L242.51 412.72L242.53 412.57L242.56 412.42L242.59 412.27L242.62 412.12L242.66 411.97L242.7 411.82L242.75 411.68L242.79 411.53L242.84 411.39L242.89 411.25L242.95 411.11L243.01 410.97L243.07 410.83L243.13 410.69L243.2 410.56L243.27 410.42L243.34 410.29L243.42 410.16L243.5 410.03L243.58 409.9L243.66 409.77L243.75 409.65L243.84 409.52L243.93 409.4L244.02 409.28L244.12 409.16L244.22 409.05L244.32 408.93L244.43 408.82L244.53 408.71L244.64 408.6L244.76 408.5L244.87 408.39L284.16 374.02L284.89 373.36L285.61 372.69L286.31 372L287 371.31L287.67 370.6L288.32 369.87L288.96 369.14L289.58 368.39L290.18 367.63L290.76 366.86L291.33 366.07L291.88 365.28L292.42 364.47L292.93 363.65L293.43 362.83L293.91 361.99L294.37 361.15L294.82 360.29L295.24 359.43L295.65 358.55L296.04 357.67L296.41 356.78L296.76 355.88L297.09 354.98L297.41 354.07L297.7 353.15L297.97 352.22L298.23 351.29L298.47 350.35L298.68 349.41L298.88 348.46L299.05 347.51L299.21 346.55L299.34 345.58L299.46 344.61L299.55 343.64L299.63 342.67L299.68 341.69L299.71 340.71L299.72 339.72L299.72 299.2L299.7 298.31L299.65 297.44L299.56 296.57L299.44 295.72L299.28 294.87L299.1 294.04L298.88 293.22L298.62 292.41L298.34 291.62L298.03 290.84L297.69 290.08L297.32 289.33L296.92 288.6L296.5 287.89L296.05 287.19L295.57 286.51L295.07 285.86L294.54 285.22L293.99 284.6L293.42 284.01L292.83 283.44L292.21 282.89L291.57 282.36L290.92 281.86L290.24 281.38L289.55 280.93L288.83 280.51L288.1 280.11L287.35 279.74L286.59 279.4L285.81 279.09L285.02 278.81L284.21 278.56L283.39 278.34L282.56 278.15L281.72 277.99L280.86 277.87L280 277.78L279.12 277.73L278.24 277.71L277.35 277.73L276.48 277.78L275.61 277.87L274.76 277.99L273.91 278.15L273.08 278.34L272.26 278.56L271.45 278.81L270.66 279.09L269.88 279.4L269.12 279.74L268.37 280.11L267.64 280.51L266.93 280.93L266.23 281.38L265.56 281.86L264.9 282.36L264.26 282.89L263.65 283.44L263.05 284.01L262.48 284.6L261.93 285.22L261.4 285.86L260.9 286.51L260.43 287.19L259.97 287.89L259.55 288.6L259.15 289.33L258.78 290.08L258.44 290.84L258.13 291.62L257.85 292.41L257.6 293.22L257.38 294.04L257.19 294.87L257.03 295.72L256.91 296.57L256.82 297.44L256.77 298.31L256.75 299.2L256.75 313.52L242.43 313.52L242.43 299.2L242.46 297.72L242.55 296.26L242.69 294.82L242.9 293.39L243.16 291.99L243.47 290.6L243.84 289.23L244.26 287.89L244.73 286.57L245.25 285.27L245.81 284L246.43 282.75L247.09 281.53L247.8 280.35L248.55 279.19L249.35 278.06L250.18 276.97L251.06 275.9L251.97 274.88L252.93 273.89L253.92 272.93L254.95 272.02L256.01 271.14L257.1 270.3L258.23 269.51L259.39 268.76L260.58 268.05L261.79 267.39L263.04 266.77L264.31 266.2L265.61 265.68L266.93 265.21L268.27 264.8L269.64 264.43L271.03 264.12L272.44 263.86L273.86 263.65L275.3 263.51L276.76 263.42L278.24 263.39L279.71 263.42L281.17 263.51Z" id="b8wVB95vP"></path><path d="M226.22 177.66L228.82 177.92L231.38 178.29L233.91 178.76L236.41 179.32L238.87 179.98L241.29 180.73L243.67 181.58L246.01 182.52L248.3 183.54L250.54 184.65L252.73 185.84L254.87 187.11L256.95 188.47L258.98 189.89L260.95 191.4L262.87 192.98L264.71 194.62L266.5 196.34L268.21 198.13L269.86 199.97L271.44 201.88L272.94 203.86L274.37 205.88L275.73 207.97L277 210.11L278.19 212.3L279.3 214.54L280.32 216.83L281.26 219.17L282.11 221.55L282.86 223.97L283.52 226.43L284.09 228.93L284.55 231.46L284.92 234.02L285.18 236.62L285.34 239.25L285.4 241.9L285.4 270.55L271.07 270.55L271.07 241.9L271.03 239.84L270.91 237.8L270.7 235.78L270.42 233.78L270.05 231.81L269.62 229.87L269.1 227.96L268.51 226.07L267.86 224.22L267.13 222.41L266.33 220.63L265.47 218.88L264.54 217.18L263.55 215.51L262.5 213.89L261.39 212.31L260.22 210.78L258.99 209.29L257.71 207.86L256.38 206.47L254.99 205.13L253.55 203.85L252.06 202.62L250.53 201.45L248.95 200.34L247.33 199.29L245.67 198.3L243.96 197.37L242.22 196.51L240.44 195.71L238.62 194.99L236.77 194.33L234.89 193.74L232.98 193.23L231.03 192.79L229.06 192.42L227.07 192.14L225.05 191.93L223 191.81L220.94 191.77L149.32 191.77L147.26 191.81L145.22 191.93L143.2 192.14L141.2 192.42L139.23 192.79L137.29 193.23L135.37 193.74L133.49 194.33L131.64 194.99L129.83 195.71L128.05 196.51L126.3 197.37L124.6 198.3L122.93 199.29L121.31 200.34L119.73 201.45L118.2 202.62L116.71 203.85L115.28 205.13L113.89 206.47L112.55 207.86L111.27 209.29L110.04 210.78L108.87 212.31L107.76 213.89L106.71 215.51L105.72 217.18L104.79 218.88L103.93 220.63L103.13 222.41L102.41 224.22L101.75 226.07L101.16 227.96L100.65 229.87L100.21 231.81L99.85 233.78L99.56 235.78L99.35 237.8L99.23 239.84L99.19 241.9L99.19 310.04L99.22 312.84L99.3 315.62L99.43 318.39L99.62 321.15L99.86 323.91L100.16 326.65L100.51 329.38L100.91 332.09L101.36 334.79L101.87 337.48L102.43 340.16L103.04 342.82L103.7 345.46L104.41 348.09L105.17 350.7L105.99 353.29L106.85 355.87L107.76 358.42L108.73 360.96L109.74 363.48L110.81 365.98L111.92 368.45L113.08 370.91L114.29 373.34L115.55 375.75L116.85 378.13L118.21 380.49L119.61 382.83L121.06 385.14L122.56 387.43L124.1 389.69L125.69 391.92L127.33 394.12L129.01 396.3L130.74 398.44L132.51 400.56L134.33 402.65L136.2 404.71L138.11 406.73L140.06 408.72L140.16 408.82L140.26 408.93L140.35 409.03L140.45 409.14L140.54 409.25L140.63 409.36L140.71 409.47L140.8 409.58L140.88 409.7L140.96 409.81L141.03 409.93L141.11 410.05L141.18 410.17L141.25 410.29L141.32 410.41L141.38 410.54L141.44 410.66L141.5 410.79L141.56 410.91L141.62 411.04L141.67 411.17L141.72 411.3L141.76 411.43L141.81 411.57L141.85 411.7L141.89 411.83L141.93 411.97L141.96 412.11L141.99 412.24L142.02 412.38L142.05 412.52L142.07 412.66L142.09 412.8L142.11 412.94L142.12 413.08L142.14 413.22L142.15 413.36L142.15 413.5L142.16 413.64L142.16 413.79L142.16 428.11L127.84 428.11L127.84 416.71L125.78 414.53L123.77 412.32L121.81 410.08L119.89 407.81L118.03 405.5L116.21 403.16L114.44 400.8L112.72 398.41L111.04 395.98L109.42 393.53L107.85 391.05L106.32 388.55L104.85 386.01L103.42 383.46L102.05 380.88L100.73 378.27L99.46 375.64L98.23 372.99L97.07 370.31L95.95 367.61L94.88 364.89L93.87 362.16L92.91 359.4L92 356.62L91.15 353.82L90.35 351L89.6 348.17L88.9 345.32L88.26 342.46L87.68 339.57L87.15 336.68L86.67 333.77L86.25 330.84L85.88 327.9L85.57 324.95L85.32 321.99L85.12 319.02L84.98 316.03L84.89 313.04L84.86 310.04L84.86 241.9L84.92 239.25L85.08 236.62L85.34 234.02L85.71 231.46L86.18 228.93L86.74 226.43L87.4 223.97L88.16 221.55L89 219.17L89.94 216.83L90.96 214.54L92.07 212.3L93.26 210.11L94.54 207.97L95.89 205.88L97.32 203.86L98.82 201.88L100.4 199.97L102.05 198.13L103.77 196.34L105.55 194.62L107.4 192.98L109.31 191.4L111.28 189.89L113.31 188.47L115.4 187.11L117.54 185.84L119.73 184.65L121.97 183.54L124.26 182.52L126.59 181.58L128.97 180.73L131.39 179.98L133.85 179.32L136.35 178.76L138.88 178.29L141.45 177.92L144.04 177.66L146.67 177.5L149.32 177.44L220.94 177.44L223.59 177.5L226.22 177.66Z" id="b4rZbhLGQk"></path><path d="M92.03 249.06L92.03 234.74L278.24 234.74L278.24 249.06L92.03 249.06Z" id="e3yuS1Ktyh"></path><path d="M228.1 463.92L228.1 499.73L213.78 499.73L213.78 456.76L213.79 456.46L213.8 456.16L213.83 455.86L213.88 455.57L213.93 455.28L214 454.99L214.07 454.71L214.16 454.44L214.26 454.17L214.37 453.9L214.49 453.64L214.62 453.39L214.76 453.14L214.91 452.9L215.06 452.66L215.23 452.44L215.4 452.21L215.59 452L215.78 451.79L215.98 451.59L216.19 451.4L216.4 451.22L216.62 451.04L216.85 450.88L217.09 450.72L217.33 450.57L217.58 450.43L217.83 450.31L218.09 450.19L218.35 450.08L218.62 449.98L218.9 449.89L219.18 449.81L219.46 449.75L219.75 449.69L220.04 449.65L220.34 449.62L220.64 449.6L220.94 449.6L263.91 449.6L263.91 463.92L228.1 463.92Z" id="amPtt5D3e"></path><path d="M307.34 62.86L307.54 62.88L307.74 62.9L307.94 62.92L308.14 62.95L308.34 62.99L308.53 63.03L308.72 63.08L308.91 63.13L309.1 63.19L309.29 63.25L309.47 63.32L309.65 63.39L309.83 63.47L310.01 63.55L310.19 63.64L310.36 63.73L310.53 63.83L310.7 63.93L310.86 64.04L311.02 64.15L311.18 64.26L311.34 64.38L311.49 64.51L311.64 64.64L311.78 64.77L311.93 64.91L312.06 65.05L312.2 65.19L312.33 65.34L312.46 65.5L312.58 65.65L312.7 65.82L312.82 65.98L312.93 66.15L313.04 66.33L330.84 96L360.51 78.2L360.7 78.09L360.9 77.98L361.1 77.88L361.3 77.79L361.5 77.7L361.7 77.62L361.91 77.55L362.12 77.48L362.33 77.42L362.54 77.37L362.75 77.32L362.96 77.28L363.17 77.25L363.39 77.22L363.6 77.2L363.82 77.18L364.03 77.17L364.25 77.17L364.46 77.18L364.68 77.19L364.89 77.21L365.1 77.23L365.32 77.26L365.53 77.3L365.74 77.34L365.95 77.39L366.16 77.45L366.36 77.51L366.57 77.58L366.77 77.65L366.97 77.74L367.17 77.82L367.37 77.92L367.56 78.02L367.75 78.12L367.94 78.24L368.13 78.36L368.31 78.48L368.49 78.61L368.67 78.75L368.84 78.89L369.01 79.04L369.17 79.19L369.33 79.35L369.48 79.51L369.63 79.67L369.77 79.84L369.9 80.01L370.03 80.19L370.15 80.37L370.27 80.55L370.38 80.74L370.49 80.93L370.59 81.12L370.68 81.31L370.77 81.51L370.85 81.71L370.93 81.91L371 82.11L371.06 82.31L371.12 82.52L371.17 82.73L371.22 82.94L371.26 83.15L371.29 83.36L371.31 83.58L371.33 83.79L371.35 84.01L371.35 84.22L371.35 84.44L371.35 84.66L371.33 84.88L371.31 85.09L371.29 85.31L371.25 85.53L371.21 85.75L371.17 85.96L371.11 86.18L371.05 86.39L370.98 86.61L359.79 120.15L399.99 120.15L400.21 120.15L400.42 120.16L400.64 120.18L400.85 120.2L401.06 120.23L401.27 120.26L401.48 120.3L401.68 120.35L401.89 120.4L402.09 120.46L402.29 120.53L402.49 120.6L402.68 120.67L402.87 120.75L403.06 120.84L403.25 120.93L403.43 121.03L403.61 121.13L403.79 121.24L403.97 121.35L404.14 121.47L404.31 121.59L404.47 121.72L404.63 121.85L404.79 121.99L404.94 122.13L405.09 122.28L405.24 122.43L405.38 122.58L405.51 122.74L405.64 122.91L405.77 123.08L405.89 123.25L406.01 123.43L406.12 123.61L406.23 123.79L406.33 123.98L406.43 124.17L406.52 124.37L406.61 124.56L406.69 124.77L406.76 124.97L406.83 125.17L406.89 125.38L406.94 125.59L406.99 125.79L407.03 126L407.07 126.21L407.1 126.42L407.12 126.63L407.14 126.84L407.15 127.05L407.15 127.25L407.15 127.46L407.14 127.67L407.13 127.88L407.11 128.09L407.08 128.29L407.05 128.5L407.01 128.71L406.97 128.91L406.92 129.11L406.87 129.31L406.81 129.51L406.74 129.71L406.67 129.9L406.59 130.1L406.5 130.29L406.41 130.48L406.32 130.67L406.21 130.85L406.11 131.03L406 131.21L405.88 131.39L405.75 131.56L405.62 131.73L405.49 131.9L405.35 132.06L405.2 132.22L405.05 132.37L369.24 168.18L359.12 158.06L382.7 134.47L349.86 134.47L349.68 134.47L349.51 134.46L349.34 134.45L349.17 134.44L349 134.42L348.83 134.4L348.67 134.37L348.5 134.34L348.33 134.31L348.17 134.27L348 134.23L347.84 134.18L347.68 134.13L347.52 134.08L347.36 134.02L347.21 133.96L347.05 133.9L346.9 133.83L346.74 133.76L346.59 133.69L346.45 133.61L346.3 133.53L346.15 133.44L346.01 133.35L345.87 133.26L345.73 133.17L345.6 133.07L345.46 132.96L345.33 132.86L345.2 132.75L345.07 132.64L344.95 132.53L344.83 132.41L344.71 132.29L344.59 132.16L344.47 132.04L344.36 131.91L344.25 131.77L344.15 131.64L344.05 131.5L343.95 131.36L343.85 131.21L343.76 131.07L343.67 130.92L343.59 130.77L343.51 130.62L343.43 130.47L343.36 130.32L343.29 130.16L343.22 130.01L343.16 129.85L343.1 129.69L343.05 129.53L343 129.37L342.95 129.21L342.91 129.05L342.87 128.88L342.84 128.72L342.8 128.55L342.78 128.39L342.75 128.22L342.73 128.05L342.72 127.89L342.71 127.72L342.7 127.55L342.7 127.38L342.7 127.21L342.7 127.05L342.71 126.88L342.72 126.71L342.74 126.54L342.76 126.37L342.78 126.21L342.81 126.04L342.84 125.87L342.88 125.71L342.92 125.54L342.96 125.38L343.01 125.21L343.06 125.05L351.26 100.44L332.05 111.96L331.8 112.11L331.54 112.24L331.27 112.37L331.01 112.48L330.74 112.58L330.47 112.67L330.2 112.75L329.92 112.81L329.65 112.87L329.37 112.91L329.1 112.95L328.82 112.97L328.54 112.98L328.27 112.98L327.99 112.97L327.72 112.95L327.44 112.92L327.17 112.88L326.9 112.83L326.63 112.77L326.37 112.7L326.11 112.61L325.85 112.52L325.59 112.42L325.34 112.31L325.09 112.19L324.85 112.06L324.61 111.92L324.37 111.77L324.15 111.61L323.92 111.44L323.71 111.26L323.5 111.07L323.29 110.87L323.1 110.67L322.91 110.45L322.72 110.23L322.55 109.99L322.38 109.75L322.23 109.5L308.17 86.08L299.21 108.48L299.16 108.61L299.1 108.74L299.04 108.87L298.98 109L298.91 109.13L298.85 109.26L298.78 109.38L298.7 109.51L298.63 109.63L298.55 109.75L298.47 109.87L298.39 109.98L298.31 110.1L298.22 110.21L298.13 110.32L298.04 110.43L297.95 110.54L297.86 110.65L297.76 110.75L297.66 110.85L297.56 110.95L297.46 111.05L297.35 111.15L297.25 111.24L297.14 111.33L297.03 111.42L296.91 111.51L296.8 111.59L296.69 111.68L296.57 111.76L296.45 111.84L296.33 111.91L296.21 111.99L296.08 112.06L295.96 112.13L295.83 112.2L295.7 112.26L295.57 112.32L295.44 112.38L295.31 112.44L295.17 112.49L295.04 112.55L294.9 112.6L294.76 112.64L294.62 112.68L294.49 112.72L294.35 112.76L294.21 112.8L294.07 112.83L293.93 112.86L293.79 112.88L293.65 112.9L293.51 112.93L293.37 112.94L293.23 112.96L293.08 112.97L292.94 112.98L292.8 112.98L292.66 112.99L292.52 112.99L292.37 112.98L292.23 112.98L292.09 112.97L291.95 112.96L291.81 112.95L291.67 112.93L291.53 112.91L291.39 112.89L291.25 112.86L291.11 112.84L290.97 112.81L290.83 112.77L290.69 112.74L290.55 112.7L290.41 112.66L290.28 112.61L290.14 112.56L290.01 112.51L289.87 112.46L289.74 112.41L257.58 98.62L270.32 124.11L270.4 124.27L270.47 124.44L270.54 124.61L270.61 124.78L270.67 124.96L270.73 125.13L270.79 125.31L270.84 125.48L270.88 125.66L270.92 125.84L270.95 126.01L270.98 126.19L271.01 126.37L271.03 126.55L271.05 126.73L271.06 126.91L271.07 127.09L271.07 127.27L271.07 127.45L271.06 127.63L271.05 127.81L271.04 127.99L271.02 128.17L271 128.35L270.97 128.53L270.93 128.71L270.9 128.88L270.85 129.06L270.81 129.23L270.76 129.41L270.7 129.58L270.64 129.75L270.58 129.92L270.51 130.09L270.43 130.26L270.36 130.43L270.27 130.59L270.19 130.76L270.1 130.92L270 131.08L269.9 131.23L269.8 131.39L269.69 131.54L269.58 131.68L269.47 131.83L269.35 131.97L269.23 132.11L269.11 132.24L268.98 132.37L268.85 132.5L268.72 132.62L268.58 132.74L268.44 132.86L268.3 132.97L268.16 133.08L268.01 133.18L267.86 133.29L267.71 133.38L267.56 133.48L267.4 133.57L267.24 133.65L267.08 133.73L266.92 133.81L266.75 133.88L266.59 133.95L266.42 134.02L266.25 134.08L266.08 134.14L265.9 134.19L265.73 134.24L265.55 134.28L265.38 134.32L265.2 134.36L265.02 134.39L264.83 134.41L264.65 134.43L264.47 134.45L264.28 134.46L264.1 134.47L263.91 134.47L231.07 134.47L254.65 158.06L244.52 168.18L208.72 132.37L208.56 132.22L208.42 132.06L208.28 131.9L208.14 131.73L208.02 131.56L207.89 131.39L207.77 131.21L207.66 131.03L207.55 130.85L207.45 130.67L207.36 130.48L207.27 130.29L207.18 130.1L207.11 129.9L207.03 129.71L206.97 129.51L206.9 129.31L206.85 129.11L206.8 128.91L206.76 128.71L206.72 128.5L206.69 128.29L206.66 128.09L206.64 127.88L206.63 127.67L206.62 127.46L206.62 127.25L206.62 127.05L206.63 126.84L206.65 126.63L206.67 126.42L206.7 126.21L206.74 126L206.78 125.79L206.83 125.59L206.88 125.38L206.94 125.17L207.01 124.97L207.08 124.77L207.16 124.56L207.25 124.37L207.34 124.17L207.44 123.98L207.54 123.79L207.65 123.61L207.76 123.43L207.88 123.25L208 123.08L208.13 122.91L208.26 122.74L208.39 122.58L208.53 122.43L208.68 122.28L208.83 122.13L208.98 121.99L209.14 121.85L209.3 121.72L209.46 121.59L209.63 121.47L209.8 121.35L209.98 121.24L210.15 121.13L210.34 121.03L210.52 120.93L210.71 120.84L210.9 120.75L211.09 120.67L211.28 120.6L211.48 120.53L211.68 120.46L211.88 120.4L212.09 120.35L212.29 120.3L212.5 120.26L212.71 120.23L212.92 120.2L213.13 120.18L213.35 120.16L213.56 120.15L213.78 120.15L252.33 120.15L236.02 87.54L235.93 87.34L235.84 87.13L235.75 86.93L235.67 86.72L235.6 86.51L235.54 86.3L235.48 86.09L235.43 85.87L235.39 85.66L235.35 85.44L235.32 85.23L235.3 85.01L235.28 84.8L235.27 84.58L235.27 84.37L235.27 84.15L235.28 83.94L235.29 83.72L235.32 83.51L235.34 83.29L235.38 83.08L235.42 82.87L235.47 82.66L235.52 82.45L235.58 82.24L235.65 82.04L235.72 81.83L235.8 81.63L235.88 81.43L235.97 81.24L236.07 81.04L236.17 80.85L236.28 80.66L236.4 80.47L236.52 80.29L236.65 80.11L236.78 79.93L236.92 79.76L237.07 79.59L237.22 79.43L237.38 79.26L237.54 79.11L237.7 78.96L237.87 78.81L238.04 78.67L238.22 78.54L238.4 78.42L238.58 78.29L238.76 78.18L238.95 78.07L239.14 77.97L239.34 77.87L239.53 77.78L239.73 77.7L239.93 77.62L240.13 77.55L240.34 77.48L240.55 77.42L240.75 77.37L240.96 77.32L241.18 77.28L241.39 77.25L241.6 77.22L241.82 77.2L242.03 77.18L242.25 77.17L242.46 77.17L242.68 77.18L242.9 77.19L243.11 77.2L243.33 77.23L243.55 77.26L243.76 77.3L243.98 77.34L244.2 77.4L244.41 77.45L244.62 77.52L244.84 77.59L245.05 77.67L245.26 77.76L288.64 96.35L300.24 67.36L300.32 67.17L300.4 66.98L300.49 66.8L300.58 66.62L300.68 66.44L300.78 66.27L300.89 66.1L301 65.94L301.11 65.78L301.23 65.62L301.36 65.46L301.49 65.31L301.62 65.16L301.75 65.02L301.89 64.88L302.03 64.74L302.18 64.61L302.33 64.49L302.48 64.36L302.64 64.24L302.8 64.13L302.96 64.02L303.13 63.91L303.3 63.81L303.47 63.72L303.64 63.63L303.82 63.54L304 63.46L304.18 63.38L304.37 63.31L304.55 63.24L304.74 63.18L304.93 63.12L305.13 63.07L305.32 63.02L305.52 62.98L305.72 62.95L305.92 62.92L306.12 62.89L306.32 62.87L306.53 62.86L306.73 62.85L306.94 62.85L307.14 62.85L307.34 62.86Z" id="bESBj8J1c"></path></defs><g><g><g><use xlink:href="#b1uRL63fIo" opacity="0.8" fill="#454545" fill-opacity="1"></use></g><g><use xlink:href="#a16ELwXMX2" opacity="1" fill="url(#gradientc2awpZWFW)"></use><g clip-path="url(#clipb8CQ7vuz4k)"><use xlink:href="#a16ELwXMX2" opacity="1" fill-opacity="0" stroke="#dbdbdb" stroke-width="20" stroke-opacity="1"></use></g></g><g><use xlink:href="#a487FDeokB" opacity="1" fill="#ffeb71" fill-opacity="1"></use><g><use xlink:href="#a487FDeokB" opacity="1" fill-opacity="0" stroke="#000000" stroke-width="1" stroke-opacity="0"></use></g></g><g><use xlink:href="#a1HbrR4SJo" opacity="1" fill="#cd5257" fill-opacity="1"></use><g><use xlink:href="#a1HbrR4SJo" opacity="1" fill-opacity="0" stroke="#000000" stroke-width="1" stroke-opacity="0"></use></g></g><g><use xlink:href="#c1pl57yRb" opacity="1" fill="#c1272d" fill-opacity="1"></use><g><use xlink:href="#c1pl57yRb" opacity="1" fill-opacity="0" stroke="#000000" stroke-width="1" stroke-opacity="0"></use></g></g><g><use xlink:href="#bj0MkJ4Ax" opacity="1" fill="#79b3cc" fill-opacity="1"></use><g><use xlink:href="#bj0MkJ4Ax" opacity="1" fill-opacity="0" stroke="#000000" stroke-width="1" stroke-opacity="0"></use></g></g><g><use xlink:href="#f4RPvpOXl6" opacity="1" fill="#1f80aa" fill-opacity="1"></use><g><use xlink:href="#f4RPvpOXl6" opacity="1" fill-opacity="0" stroke="#000000" stroke-width="1" stroke-opacity="0"></use></g></g><g><use xlink:href="#bXBLjnGmc" opacity="1" fill="#1f80aa" fill-opacity="1"></use><g><use xlink:href="#bXBLjnGmc" opacity="1" fill-opacity="0" stroke="#000000" stroke-width="1" stroke-opacity="0"></use></g></g><g><use xlink:href="#a2JKjNHR3F" opacity="1" fill="#79b3cc" fill-opacity="1"></use><g><use xlink:href="#a2JKjNHR3F" opacity="1" fill-opacity="0" stroke="#000000" stroke-width="1" stroke-opacity="0"></use></g></g><g><use xlink:href="#b8HSt9zpD" opacity="1" fill="#c1272d" fill-opacity="1"></use><g><use xlink:href="#b8HSt9zpD" opacity="1" fill-opacity="0" stroke="#000000" stroke-width="1" stroke-opacity="0"></use></g></g><g><use xlink:href="#b2uIxT3fob" opacity="1" fill="#cd5257" fill-opacity="1"></use><g><use xlink:href="#b2uIxT3fob" opacity="1" fill-opacity="0" stroke="#000000" stroke-width="1" stroke-opacity="0"></use></g></g><g><use xlink:href="#bIvXUUrbp" opacity="1" fill="#868686" fill-opacity="1"></use><g><use xlink:href="#bIvXUUrbp" opacity="1" fill-opacity="0" stroke="#000000" stroke-width="1" stroke-opacity="0"></use></g></g><g><use xlink:href="#a1Qx3QVa8y" opacity="1" fill="#b3b3b3" fill-opacity="1"></use><g><use xlink:href="#a1Qx3QVa8y" opacity="1" fill-opacity="0" stroke="#000000" stroke-width="1" stroke-opacity="0"></use></g></g><g><use xlink:href="#cH4PIj6ex" opacity="1" fill="#868686" fill-opacity="1"></use><g><use xlink:href="#cH4PIj6ex" opacity="1" fill-opacity="0" stroke="#000000" stroke-width="1" stroke-opacity="0"></use></g></g><g><use xlink:href="#bMxc0R0bT" opacity="1" fill="#b3b3b3" fill-opacity="1"></use><g><use xlink:href="#bMxc0R0bT" opacity="1" fill-opacity="0" stroke="#000000" stroke-width="1" stroke-opacity="0"></use></g></g><g><use xlink:href="#eYGWlqUmf" opacity="1" fill="#000000" fill-opacity="1"></use><g><use xlink:href="#eYGWlqUmf" opacity="1" fill-opacity="0" stroke="#000000" stroke-width="1" stroke-opacity="0"></use></g></g><g><use xlink:href="#hCVcfWoh5" opacity="1" fill="#000000" fill-opacity="1"></use><g><use xlink:href="#hCVcfWoh5" opacity="1" fill-opacity="0" stroke="#000000" stroke-width="1" stroke-opacity="0"></use></g></g><g><use xlink:href="#blufOJbbr" opacity="1" fill="#000000" fill-opacity="1"></use><g><use xlink:href="#blufOJbbr" opacity="1" fill-opacity="0" stroke="#000000" stroke-width="1" stroke-opacity="0"></use></g></g><g><use xlink:href="#atkrhvRUc" opacity="1" fill="#000000" fill-opacity="1"></use><g><use xlink:href="#atkrhvRUc" opacity="1" fill-opacity="0" stroke="#000000" stroke-width="1" stroke-opacity="0"></use></g></g><g><use xlink:href="#bwFyJUUwt" opacity="1" fill="#000000" fill-opacity="1"></use><g><use xlink:href="#bwFyJUUwt" opacity="1" fill-opacity="0" stroke="#000000" stroke-width="1" stroke-opacity="0"></use></g></g><g><use xlink:href="#i6drH7JmmZ" opacity="1" fill="#000000" fill-opacity="1"></use><g><use xlink:href="#i6drH7JmmZ" opacity="1" fill-opacity="0" stroke="#000000" stroke-width="1" stroke-opacity="0"></use></g></g><g><use xlink:href="#b8wVB95vP" opacity="1" fill="#000000" fill-opacity="1"></use><g><use xlink:href="#b8wVB95vP" opacity="1" fill-opacity="0" stroke="#000000" stroke-width="1" stroke-opacity="0"></use></g></g><g><use xlink:href="#b4rZbhLGQk" opacity="1" fill="#000000" fill-opacity="1"></use><g><use xlink:href="#b4rZbhLGQk" opacity="1" fill-opacity="0" stroke="#000000" stroke-width="1" stroke-opacity="0"></use></g></g><g><use xlink:href="#e3yuS1Ktyh" opacity="1" fill="#000000" fill-opacity="1"></use><g><use xlink:href="#e3yuS1Ktyh" opacity="1" fill-opacity="0" stroke="#000000" stroke-width="1" stroke-opacity="0"></use></g></g><g><use xlink:href="#amPtt5D3e" opacity="1" fill="#000000" fill-opacity="1"></use><g><use xlink:href="#amPtt5D3e" opacity="1" fill-opacity="0" stroke="#000000" stroke-width="1" stroke-opacity="0"></use></g></g><g><use xlink:href="#bESBj8J1c" opacity="1" fill="#000000" fill-opacity="1"></use><g><use xlink:href="#bESBj8J1c" opacity="1" fill-opacity="0" stroke="#000000" stroke-width="1" stroke-opacity="0"></use></g></g></g></g></svg>