<?xml version="1.0" encoding="UTF-8" standalone="no"?>
<!DOCTYPE svg PUBLIC "-//W3C//DTD SVG 1.1//EN" "http://www.w3.org/Graphics/SVG/1.1/DTD/svg11.dtd">
<svg version="1.1" xmlns="http://www.w3.org/2000/svg" xmlns:xlink="http://www.w3.org/1999/xlink" preserveAspectRatio="xMidYMid meet" viewBox="0 0 640 640" width="35" height="35"><defs><path d="M490 40C572.84 40 640 107.16 640 190C640 280 640 400 640 490C640 572.84 572.84 640 490 640C400 640 280 640 190 640C107.16 640 40 572.84 40 490C40 400 40 280 40 190C40 107.16 107.16 40 190 40C280 40 400 40 490 40Z" id="eFwPlevRc"></path><path d="M450 0C532.84 0 600 67.16 600 150C600 240 600 360 600 450C600 532.84 532.84 600 450 600C360 600 240 600 150 600C67.16 600 0 532.84 0 450C0 360 0 240 0 150C0 67.16 67.16 0 150 0C240 0 360 0 450 0Z" id="gVLpY1RV1"></path><linearGradient id="gradientagXc4qlzF" gradientUnits="userSpaceOnUse" x1="555.81" y1="59.8" x2="45.39" y2="569.38"><stop style="stop-color: #c27aff;stop-opacity: 1" offset="0%"></stop><stop style="stop-color: #2b2e38;stop-opacity: 1" offset="100%"></stop><stop style="stop-color: #010000;stop-opacity: 1" offset="100%"></stop></linearGradient><clipPath id="clipabRmsZpCw"><use xlink:href="#gVLpY1RV1" opacity="1"></use></clipPath><path d="M346.5 284.76L250.5 284.76C198.66 306.36 169.86 318.36 164.1 320.76C133.7 332.76 114.5 361.56 114.5 394.36C114.5 403.05 114.5 446.52 114.5 524.76L482.5 524.76C482.5 446.52 482.5 403.05 482.5 394.36C482.5 361.56 463.3 332.76 432.9 320.76C421.38 315.96 392.58 303.96 346.5 284.76Z" id="k5xAMtLz4"></path><path d="M114.5 444.76L482.5 444.76L482.5 484.76L114.5 484.76L114.5 444.76Z" id="b3YPEMKd3V"></path><path d="M482.5 404.76C482.5 398.52 482.5 395.05 482.5 394.36C482.5 383.96 480.9 374.36 476.9 364.76C441.22 364.76 155.78 364.76 120.1 364.76C116.1 374.36 114.5 383.96 114.5 394.36C114.5 395.05 114.5 398.52 114.5 404.76L482.5 404.76Z" id="b3UOllDlm"></path><path d="M186.5 364.76L202.5 364.76L202.5 524.76L186.5 524.76L186.5 364.76Z" id="blHbSVcAc"></path><path d="M394.5 364.76L410.5 364.76L410.5 524.76L394.5 524.76L394.5 364.76Z" id="a33oUG3BCQ"></path><path d="M288.1 506.36C284.9 503.16 284.9 498.36 288.1 495.16C300.58 483.32 400.42 388.6 412.9 376.76C433.7 356.76 466.5 357.56 486.5 377.56C506.5 397.56 507.3 429.56 488.1 450.36C485.14 453.64 461.46 479.88 458.5 483.16C455.3 486.36 450.5 486.36 447.3 483.96C446.5 483.16 445.7 482.36 444.9 480.76C443.94 478.44 436.26 459.88 435.3 457.56C434.5 454.36 434.5 451.16 436.9 448.76C439.3 446.36 458.5 427.16 460.9 424.76C467.3 418.36 467.3 407.16 460.9 400.76C454.5 394.36 443.3 394.36 436.9 400.76C424.42 412.6 324.58 507.32 312.1 519.16C308.9 522.36 304.1 522.36 300.9 519.16C298.34 516.6 289.38 507.64 288.1 506.36Z" id="a1DvfStEHc"></path><path d="M229.7 312.76C271.3 339.16 324.9 339.16 367.3 312.76C368.58 311.96 374.98 307.96 386.5 300.76L346.5 284.76L250.5 284.76L211.3 300.76C221.11 307.16 227.25 311.16 229.7 312.76Z" id="cxPddF666"></path><path d="M386.5 176.76L386.5 224.76C400.42 218.04 408.15 214.3 409.7 213.56C415.3 211.16 418.5 205.56 418.5 199.16C418.5 197.72 418.5 186.2 418.5 184.76C418.5 175.96 411.3 168.76 402.5 168.76C400.37 169.82 395.03 172.49 386.5 176.76Z" id="a1hj2wYJRI"></path><path d="M194.5 172.76C185.7 172.76 178.5 179.96 178.5 188.76C178.5 190.2 178.5 201.72 178.5 203.16C178.5 209.56 181.7 215.16 187.3 217.56C188.85 218.3 196.58 222.04 210.5 228.76L210.5 180.76C201.97 176.49 196.63 173.82 194.5 172.76Z" id="agavw3fc"></path><path d="M274.5 60.76C239.3 60.76 210.5 89.56 210.5 124.76C210.5 126.36 210.5 134.36 210.5 148.76L386.5 148.76C386.5 134.36 386.5 126.36 386.5 124.76C386.5 89.56 357.7 60.76 322.5 60.76C312.9 60.76 279.3 60.76 274.5 60.76Z" id="bP5NhUDyT"></path><path d="M386.5 148.76C386.5 190.04 386.5 212.97 386.5 217.56C386.5 248.76 368.1 277.56 339.3 290.36C337.14 291.32 319.86 299 317.7 299.96C304.9 305.56 290.5 305.56 277.7 299.96C275.54 299 258.26 291.32 256.1 290.36C228.9 276.76 210.5 248.76 210.5 217.56C210.5 212.97 210.5 190.04 210.5 148.76C213.86 147.32 215.73 146.52 216.1 146.36C268.9 127.16 327.3 127.16 380.1 146.36C380.95 146.68 383.09 147.48 386.5 148.76Z" id="c16yu9zILn"></path><path d="M272.9 164.76C279.3 164.76 285.7 167.16 289.7 171.96C290.29 172.54 293.22 175.48 298.5 180.76C303.78 175.48 306.71 172.54 307.3 171.96C312.1 167.16 317.7 164.76 324.1 164.76C324.74 164.76 329.86 164.76 330.5 164.76C344.1 164.76 354.5 175.16 354.5 188.76C354.5 189.56 354.5 195.96 354.5 196.76C354.5 210.36 344.1 220.76 330.5 220.76C329.86 220.76 324.74 220.76 324.1 220.76C317.7 220.76 311.3 218.36 307.3 213.56C306.71 212.97 303.78 210.04 298.5 204.76C293.22 210.04 290.29 212.97 289.7 213.56C284.9 218.36 279.3 220.76 272.9 220.76C272.26 220.76 267.14 220.76 266.5 220.76C252.9 220.76 242.5 210.36 242.5 196.76C242.5 195.96 242.5 189.56 242.5 188.76C242.5 175.16 252.9 164.76 266.5 164.76C267.78 164.76 272.26 164.76 272.9 164.76Z" id="d9pMmMZnI"></path><path d="M274.1 156.79L274.7 156.82L275.3 156.87L275.9 156.94L276.49 157.02L277.09 157.11L277.69 157.22L278.28 157.34L278.88 157.47L279.47 157.61L280.06 157.77L280.65 157.94L281.23 158.12L281.82 158.32L282.4 158.52L282.98 158.74L283.55 158.97L284.13 159.21L284.7 159.46L285.27 159.72L285.83 159.99L286.4 160.27L286.95 160.56L287.51 160.86L288.06 161.17L288.61 161.49L289.15 161.81L289.69 162.15L290.22 162.49L290.76 162.85L291.28 163.21L291.8 163.58L292.32 163.95L292.83 164.34L293.33 164.73L293.83 165.12L294.33 165.53L294.82 165.94L295.3 166.36L298.5 169.56L301.47 166.59L301.51 166.55L301.58 166.48L301.7 166.36L302.12 165.88L302.56 165.42L303 164.97L303.45 164.53L303.91 164.11L304.38 163.69L304.85 163.29L305.34 162.9L305.83 162.52L306.32 162.16L306.83 161.8L307.34 161.46L307.87 161.13L308.39 160.81L308.93 160.51L309.47 160.21L310.02 159.93L310.57 159.66L311.13 159.4L311.7 159.16L312.27 158.92L312.85 158.7L313.44 158.49L314.03 158.29L314.62 158.11L315.22 157.93L315.83 157.77L316.44 157.62L317.05 157.48L317.67 157.36L318.3 157.24L318.93 157.14L319.56 157.05L320.2 156.97L320.84 156.91L321.49 156.85L322.13 156.81L322.79 156.78L323.44 156.76L324.1 156.76L330.5 156.76L331.81 156.78L333.11 156.86L334.4 157L335.67 157.18L336.93 157.41L338.17 157.69L339.39 158.02L340.59 158.4L341.77 158.82L342.92 159.28L344.06 159.79L345.17 160.34L346.26 160.94L347.32 161.57L348.36 162.24L349.37 162.95L350.35 163.7L351.3 164.48L352.21 165.3L353.1 166.16L353.95 167.04L354.77 167.96L355.56 168.91L356.3 169.89L357.02 170.9L357.69 171.93L358.32 173L358.91 174.08L359.47 175.2L359.97 176.33L360.44 177.49L360.86 178.67L361.24 179.87L361.57 181.09L361.85 182.33L362.08 183.58L362.26 184.86L362.39 186.14L362.47 187.44L362.5 188.76L362.5 196.76L362.47 198.07L362.39 199.37L362.26 200.66L362.08 201.93L361.85 203.18L361.57 204.42L361.24 205.64L360.86 206.84L360.44 208.02L359.97 209.18L359.47 210.32L358.91 211.43L358.32 212.52L357.69 213.58L357.02 214.62L356.3 215.62L355.56 216.6L354.77 217.55L353.95 218.47L353.1 219.36L352.21 220.21L351.3 221.03L350.35 221.81L349.37 222.56L348.36 223.27L347.32 223.94L346.26 224.58L345.17 225.17L344.06 225.72L342.92 226.23L341.77 226.7L340.59 227.12L339.39 227.49L338.17 227.82L336.93 228.1L335.67 228.34L334.4 228.52L333.11 228.65L331.81 228.73L330.5 228.76L324.1 228.76L323.5 228.75L322.9 228.73L322.3 228.69L321.7 228.64L321.1 228.57L320.51 228.49L319.91 228.4L319.31 228.3L318.72 228.18L318.13 228.04L317.53 227.9L316.94 227.74L316.35 227.57L315.77 227.39L315.18 227.2L314.6 226.99L314.02 226.77L313.45 226.55L312.87 226.31L312.3 226.06L311.73 225.8L311.17 225.53L310.6 225.25L310.05 224.96L309.49 224.66L308.94 224.35L308.39 224.03L307.85 223.7L307.31 223.36L306.78 223.02L306.24 222.67L305.72 222.31L305.2 221.94L304.68 221.56L304.17 221.18L303.67 220.79L303.17 220.39L302.67 219.98L302.18 219.57L301.7 219.16L300.3 217.76L298.5 215.96L295.3 219.16L294.88 219.63L294.44 220.09L294 220.54L293.55 220.98L293.09 221.41L292.62 221.82L292.15 222.22L291.66 222.61L291.17 222.99L290.68 223.36L290.17 223.71L289.66 224.05L289.13 224.38L288.61 224.7L288.07 225.01L287.53 225.3L286.98 225.58L286.43 225.85L285.87 226.11L285.3 226.36L284.73 226.59L284.15 226.81L283.56 227.02L282.97 227.22L282.38 227.41L281.78 227.58L281.17 227.74L280.56 227.89L279.95 228.03L279.33 228.16L278.7 228.27L278.07 228.37L277.44 228.46L276.8 228.54L276.16 228.61L275.51 228.66L274.87 228.7L274.21 228.73L273.56 228.75L272.9 228.76L266.5 228.76L265.19 228.73L263.89 228.65L262.6 228.52L261.33 228.34L260.07 228.1L258.83 227.82L257.61 227.49L256.41 227.12L255.23 226.7L254.08 226.23L252.94 225.72L251.83 225.17L250.74 224.58L249.68 223.94L248.64 223.27L247.63 222.56L246.65 221.81L245.7 221.03L244.79 220.21L243.9 219.36L243.05 218.47L242.23 217.55L241.44 216.6L240.7 215.62L239.98 214.62L239.31 213.58L238.68 212.52L238.09 211.43L237.53 210.32L237.02 209.18L236.56 208.02L236.14 206.84L235.76 205.64L235.43 204.42L235.15 203.18L234.92 201.93L234.74 200.66L234.61 199.37L234.53 198.07L234.5 196.76L234.5 188.76L234.53 187.44L234.61 186.14L234.74 184.86L234.92 183.58L235.15 182.33L235.43 181.09L235.76 179.87L236.14 178.67L236.56 177.49L237.03 176.33L237.53 175.2L238.09 174.08L238.68 173L239.31 171.93L239.98 170.9L240.7 169.89L241.44 168.91L242.23 167.96L243.05 167.04L243.9 166.16L244.79 165.3L245.7 164.48L246.65 163.7L247.63 162.95L248.64 162.24L249.68 161.57L250.74 160.94L251.83 160.34L252.94 159.79L254.08 159.28L255.23 158.82L256.41 158.4L257.61 158.02L258.83 157.69L260.07 157.41L261.33 157.18L262.6 157L263.89 156.86L265.19 156.78L266.5 156.76L272.9 156.76L273.5 156.76L274.1 156.79ZM265.84 172.77L265.19 172.81L264.55 172.88L263.91 172.97L263.29 173.08L262.67 173.22L262.06 173.39L261.46 173.58L260.87 173.79L260.29 174.02L259.72 174.27L259.16 174.55L258.62 174.85L258.09 175.16L257.57 175.5L257.07 175.85L256.58 176.23L256.1 176.62L255.64 177.03L255.2 177.46L254.77 177.9L254.36 178.36L253.97 178.83L253.6 179.32L253.24 179.83L252.91 180.34L252.59 180.88L252.29 181.42L252.02 181.98L251.76 182.54L251.53 183.12L251.32 183.71L251.13 184.31L250.97 184.92L250.83 185.54L250.71 186.17L250.62 186.81L250.55 187.45L250.51 188.1L250.5 188.76L250.5 196.76L250.51 197.41L250.55 198.06L250.62 198.71L250.71 199.34L250.83 199.97L250.97 200.59L251.13 201.2L251.32 201.8L251.53 202.39L251.76 202.97L252.02 203.54L252.29 204.09L252.59 204.64L252.91 205.17L253.24 205.69L253.6 206.19L253.97 206.68L254.36 207.15L254.77 207.61L255.2 208.06L255.64 208.48L256.1 208.89L256.58 209.29L257.07 209.66L257.57 210.01L258.09 210.35L258.62 210.67L259.16 210.96L259.72 211.24L260.29 211.49L260.87 211.73L261.46 211.94L262.06 212.13L262.67 212.29L263.29 212.43L263.91 212.55L264.55 212.64L265.19 212.7L265.84 212.74L266.5 212.76L272.9 212.76L273.2 212.75L273.5 212.74L273.8 212.73L274.1 212.71L274.4 212.68L274.7 212.65L275 212.61L275.29 212.56L275.59 212.51L275.89 212.46L276.18 212.39L276.48 212.32L276.77 212.25L277.07 212.17L277.36 212.08L277.65 211.99L277.94 211.89L278.23 211.78L278.51 211.67L278.8 211.56L279.08 211.43L279.37 211.3L279.65 211.17L279.93 211.03L280.2 210.88L280.48 210.73L280.75 210.57L281.03 210.4L281.3 210.23L281.56 210.06L281.83 209.87L282.09 209.68L282.35 209.49L282.61 209.29L282.86 209.08L283.12 208.87L283.37 208.65L283.61 208.42L283.86 208.19L284.1 207.96L284.96 207.1L285.14 206.92L293.78 198.28L294.32 197.74L298.5 193.56L312.9 207.96L313.14 208.19L313.39 208.42L313.63 208.65L313.88 208.87L314.14 209.08L314.39 209.29L314.65 209.49L314.91 209.68L315.17 209.87L315.44 210.06L315.7 210.23L315.97 210.4L316.25 210.57L316.52 210.73L316.8 210.88L317.07 211.03L317.35 211.17L317.63 211.3L317.92 211.43L318.2 211.56L318.49 211.67L318.77 211.78L319.06 211.89L319.35 211.99L319.64 212.08L319.93 212.17L320.23 212.25L320.52 212.32L320.82 212.39L321.11 212.46L321.41 212.51L321.71 212.56L322 212.61L322.3 212.65L322.6 212.68L322.9 212.71L323.2 212.73L323.5 212.74L323.8 212.75L324.1 212.76L330.5 212.76L331.16 212.74L331.81 212.7L332.45 212.64L333.09 212.55L333.71 212.43L334.33 212.29L334.94 212.13L335.54 211.94L336.13 211.73L336.71 211.49L337.28 211.24L337.84 210.96L338.38 210.67L338.91 210.35L339.43 210.01L339.93 209.66L340.42 209.29L340.9 208.89L341.36 208.48L341.8 208.06L342.23 207.61L342.64 207.15L343.03 206.68L343.4 206.19L343.76 205.69L344.09 205.17L344.41 204.64L344.71 204.09L344.98 203.54L345.24 202.97L345.47 202.39L345.68 201.8L345.87 201.2L346.03 200.59L346.17 199.97L346.29 199.34L346.38 198.71L346.45 198.06L346.49 197.41L346.5 196.76L346.5 188.76L346.49 188.1L346.45 187.45L346.38 186.81L346.29 186.17L346.17 185.54L346.03 184.92L345.87 184.31L345.68 183.71L345.47 183.12L345.24 182.54L344.98 181.98L344.71 181.42L344.41 180.88L344.09 180.34L343.76 179.83L343.4 179.32L343.03 178.83L342.64 178.36L342.23 177.9L341.8 177.46L341.36 177.03L340.9 176.62L340.42 176.23L339.93 175.85L339.43 175.5L338.91 175.16L338.38 174.85L337.84 174.55L337.28 174.27L336.71 174.02L336.13 173.79L335.54 173.58L334.94 173.39L334.33 173.22L333.71 173.08L333.09 172.97L332.45 172.88L331.81 172.81L331.16 172.77L330.5 172.76L324.1 172.76L323.8 172.76L323.5 172.77L323.2 172.78L322.9 172.8L322.6 172.83L322.3 172.86L322 172.9L321.71 172.95L321.41 173L321.11 173.06L320.82 173.12L320.52 173.19L320.23 173.26L319.93 173.34L319.64 173.43L319.35 173.52L319.06 173.62L318.77 173.73L318.49 173.84L318.2 173.96L317.92 174.08L317.63 174.21L317.35 174.34L317.07 174.48L316.8 174.63L316.52 174.78L316.25 174.94L315.97 175.11L315.7 175.28L315.44 175.46L315.17 175.64L314.91 175.83L314.65 176.02L314.39 176.22L314.14 176.43L313.88 176.64L313.63 176.86L313.39 177.09L313.14 177.32L312.9 177.56L303.22 187.23L302.68 187.77L298.5 191.96L286.8 180.26L284.64 178.1L284.1 177.56L283.86 177.32L283.61 177.09L283.37 176.86L283.12 176.64L282.86 176.43L282.61 176.22L282.35 176.02L282.09 175.83L281.83 175.64L281.56 175.46L281.3 175.28L281.03 175.11L280.75 174.94L280.48 174.78L280.2 174.63L279.93 174.48L279.65 174.34L279.37 174.21L279.08 174.08L278.8 173.96L278.51 173.84L278.23 173.73L277.94 173.62L277.65 173.52L277.36 173.43L277.07 173.34L276.77 173.26L276.48 173.19L276.18 173.12L275.89 173.06L275.59 173L275.29 172.95L275 172.9L274.7 172.86L274.4 172.83L274.1 172.8L273.8 172.78L273.5 172.77L273.2 172.76L272.9 172.76L266.5 172.76L265.84 172.77Z" id="fj0Ok4ZKo"></path><path d="M328.44 52.99L331.35 53.29L334.24 53.69L337.08 54.21L339.88 54.84L342.64 55.57L345.35 56.4L348.01 57.34L350.63 58.38L353.19 59.52L355.69 60.75L358.14 62.07L360.53 63.49L362.86 64.99L365.12 66.58L367.32 68.25L369.45 70.01L371.51 71.84L373.5 73.76L375.41 75.74L377.25 77.8L379 79.93L380.68 82.13L382.27 84.4L383.77 86.73L385.18 89.12L386.51 91.56L387.74 94.07L388.88 96.63L389.91 99.25L390.85 101.91L391.69 104.62L392.42 107.38L393.05 110.18L393.56 113.02L393.97 115.9L394.26 118.82L394.44 121.77L394.5 124.76L394.5 167.96L400.9 164.76L402.5 164.76L403.51 164.78L404.52 164.83L405.5 164.93L406.48 165.06L407.44 165.23L408.38 165.43L409.31 165.67L410.22 165.95L411.11 166.25L411.99 166.59L412.84 166.97L413.68 167.37L414.5 167.81L415.3 168.27L416.07 168.76L416.82 169.29L417.55 169.84L418.26 170.42L418.94 171.02L419.6 171.66L420.23 172.31L420.84 173L421.42 173.7L421.97 174.43L422.49 175.19L422.99 175.96L423.45 176.76L423.89 177.58L424.29 178.41L424.66 179.27L425 180.14L425.31 181.04L425.58 181.95L425.82 182.88L426.03 183.82L426.2 184.78L426.33 185.75L426.42 186.74L426.48 187.74L426.5 188.76L426.5 202.36L426.49 203.07L426.46 203.78L426.41 204.49L426.34 205.19L426.24 205.88L426.13 206.56L426 207.24L425.85 207.91L425.69 208.57L425.5 209.22L425.3 209.86L425.07 210.5L424.84 211.13L424.58 211.75L424.31 212.36L424.02 212.96L423.71 213.55L423.39 214.13L423.05 214.7L422.7 215.26L422.33 215.81L421.95 216.35L421.55 216.87L421.14 217.39L420.72 217.9L420.28 218.39L419.83 218.87L419.37 219.34L418.89 219.8L418.4 220.24L417.9 220.68L417.39 221.1L416.86 221.5L416.33 221.89L415.78 222.27L415.22 222.64L414.66 222.99L414.08 223.33L413.5 223.65L412.9 223.96L392.1 234.36L391.85 235.79L391.57 237.22L391.26 238.64L390.93 240.04L390.57 241.44L390.18 242.83L389.78 244.21L389.34 245.58L388.88 246.93L388.4 248.28L387.89 249.62L387.36 250.95L386.81 252.26L386.23 253.57L385.63 254.86L385.01 256.14L384.36 257.41L383.7 258.67L383.01 259.92L382.3 261.16L381.57 262.38L380.82 263.59L380.05 264.79L379.26 265.98L378.44 267.15L377.61 268.32L376.76 269.46L375.89 270.6L375.01 271.72L374.1 272.83L373.18 273.93L372.23 275.01L371.28 276.08L370.3 277.13L369.31 278.17L368.3 279.2L367.27 280.21L366.23 281.21L365.17 282.19L364.1 283.16L436.1 312.76L437.83 313.49L439.54 314.27L441.24 315.08L442.91 315.92L444.56 316.8L446.2 317.71L447.81 318.65L449.4 319.63L450.97 320.64L452.51 321.68L454.03 322.75L455.53 323.86L457.01 324.99L458.46 326.16L459.88 327.35L461.28 328.58L462.65 329.83L463.99 331.11L465.31 332.42L466.6 333.76L467.86 335.12L469.09 336.51L470.29 337.93L471.47 339.37L472.61 340.83L473.72 342.33L474.8 343.84L475.84 345.38L476.86 346.95L477.84 348.53L478.78 350.14L479.7 351.77L480.57 353.42L481.42 355.1L482.22 356.79L482.99 358.51L483.73 360.24L484.42 361.99L485.08 363.77L485.7 365.56L485.88 365.74L486.06 365.91L486.24 366.08L486.42 366.25L486.6 366.42L486.78 366.59L486.96 366.75L487.14 366.91L487.32 367.07L487.5 367.23L487.68 367.39L487.86 367.54L488.04 367.7L488.22 367.85L488.4 368L488.58 368.16L488.76 368.31L488.94 368.46L489.12 368.61L489.48 368.91L489.66 369.06L489.84 369.21L490.02 369.36L490.2 369.51L490.38 369.66L490.56 369.82L490.74 369.97L490.92 370.12L491.1 370.28L491.28 370.44L491.46 370.6L491.64 370.76L491.82 370.93L492 371.09L492.18 371.26L492.36 371.43L492.54 371.6L492.72 371.78L492.9 371.96L494.54 373.66L496.1 375.42L497.59 377.23L498.99 379.08L500.32 380.98L501.57 382.92L502.73 384.89L503.82 386.91L504.82 388.95L505.75 391.03L506.59 393.14L507.36 395.27L508.04 397.43L508.64 399.6L509.16 401.8L509.59 404.01L509.94 406.23L510.21 408.47L510.4 410.71L510.5 412.96L510.52 415.21L510.45 417.46L510.3 419.71L510.06 421.95L509.74 424.19L509.34 426.42L508.84 428.63L508.27 430.84L507.6 433.02L506.85 435.18L506.01 437.32L505.09 439.44L504.07 441.53L502.97 443.58L501.78 445.61L500.5 447.6L499.14 449.55L497.68 451.46L496.14 453.33L494.5 455.16L491.27 458.92L491.09 459.13L489.7 460.76L490.5 460.76L490.5 532.76L106.5 532.76L106.5 394.36L106.54 391.66L106.66 388.99L106.86 386.33L107.14 383.69L107.49 381.07L107.92 378.48L108.43 375.91L109.01 373.36L109.66 370.84L110.39 368.34L111.18 365.88L112.05 363.45L112.99 361.05L113.99 358.68L115.06 356.35L116.2 354.05L117.41 351.79L118.67 349.57L120.01 347.39L121.4 345.26L122.86 343.16L124.37 341.12L125.95 339.11L127.58 337.16L129.27 335.26L131.02 333.4L132.83 331.6L134.68 329.85L136.6 328.16L138.56 326.52L140.58 324.94L142.65 323.42L144.76 321.96L146.93 320.56L149.15 319.23L151.41 317.96L153.71 316.75L156.07 315.62L158.46 314.55L160.9 313.56L232.9 283.96L231.83 282.99L230.78 282.01L229.74 281.01L228.72 280L227.73 278.97L226.75 277.93L225.79 276.88L224.84 275.81L223.92 274.73L223.01 273.63L222.13 272.52L221.26 271.4L220.41 270.26L219.58 269.12L218.77 267.95L217.98 266.78L217.2 265.59L216.45 264.39L215.71 263.18L215 261.96L214.3 260.72L213.63 259.47L212.97 258.21L212.34 256.94L211.72 255.66L211.12 254.37L210.55 253.06L209.99 251.75L209.45 250.42L208.94 249.08L208.44 247.73L207.97 246.38L207.51 245.01L207.08 243.63L206.66 242.24L206.27 240.84L205.89 239.44L205.54 238.02L205.21 236.59L204.9 235.16L184.1 224.76L183.45 224.45L182.81 224.12L182.19 223.78L181.58 223.42L180.99 223.04L180.41 222.65L179.85 222.24L179.31 221.82L178.78 221.38L178.26 220.93L177.76 220.47L177.28 219.99L176.81 219.5L176.36 219L175.93 218.48L175.51 217.96L175.11 217.42L174.72 216.88L174.35 216.32L174 215.76L173.66 215.18L173.34 214.6L173.04 214.01L172.75 213.41L172.48 212.8L172.23 212.19L171.99 211.57L171.77 210.95L171.57 210.32L171.39 209.68L171.22 209.04L171.07 208.4L170.94 207.75L170.82 207.1L170.72 206.45L170.64 205.79L170.58 205.13L170.54 204.48L170.51 203.82L170.5 203.16L170.5 188.76L170.52 187.74L170.58 186.74L170.67 185.75L170.8 184.78L170.97 183.82L171.18 182.88L171.42 181.95L171.69 181.04L172 180.14L172.34 179.27L172.71 178.41L173.11 177.58L173.55 176.76L174.01 175.96L174.51 175.19L175.03 174.43L175.58 173.7L176.16 173L176.77 172.31L177.4 171.66L178.06 171.02L178.74 170.42L179.45 169.84L180.18 169.29L180.93 168.76L181.7 168.27L182.5 167.81L183.32 167.37L184.16 166.97L185.01 166.59L185.89 166.25L186.78 165.95L187.69 165.67L188.62 165.43L189.56 165.23L190.52 165.06L191.5 164.93L192.48 164.83L193.49 164.78L194.5 164.76L196.1 164.76L202.5 167.96L202.5 124.76L202.56 121.77L202.74 118.82L203.03 115.9L203.44 113.02L203.95 110.18L204.58 107.38L205.31 104.62L206.15 101.91L207.09 99.25L208.13 96.63L209.26 94.07L210.49 91.56L211.82 89.12L213.23 86.73L214.73 84.4L216.32 82.13L218 79.93L219.75 77.8L221.59 75.74L223.5 73.76L225.49 71.84L227.55 70.01L229.68 68.25L231.88 66.58L234.14 64.99L236.47 63.49L238.86 62.07L241.31 60.75L243.81 59.52L246.38 58.38L248.99 57.34L251.65 56.4L254.36 55.57L257.12 54.84L259.92 54.21L262.76 53.69L265.65 53.29L268.56 52.99L271.52 52.82L274.5 52.76L322.5 52.76L325.48 52.82L328.44 52.99ZM122.5 516.76L186.5 516.76L186.5 492.76L122.5 492.76L122.5 516.76ZM326.5 516.76L394.5 516.76L394.5 492.76L352.1 492.76L326.5 516.76ZM202.5 516.76L287.3 516.76L285.56 515.02L282.79 512.24L282.5 511.96L282.15 511.59L281.8 511.21L281.48 510.82L281.16 510.43L280.85 510.02L280.56 509.6L280.29 509.17L280.02 508.73L279.77 508.29L279.54 507.83L279.32 507.37L279.11 506.9L278.92 506.43L278.74 505.95L278.58 505.46L278.43 504.97L278.3 504.47L278.18 503.97L278.08 503.47L278 502.96L277.93 502.45L277.88 501.93L277.85 501.42L277.83 500.9L277.84 500.38L277.86 499.86L277.89 499.34L277.95 498.82L278.02 498.3L278.11 497.78L278.22 497.27L278.35 496.75L278.5 496.24L278.67 495.73L278.86 495.22L279.07 494.72L279.29 494.22L279.54 493.73L279.81 493.24L280.1 492.76L202.5 492.76L202.5 516.76ZM464.53 489.12L464.15 489.47L463.76 489.81L463.37 490.13L462.98 490.44L462.58 490.74L462.17 491.03L461.76 491.3L461.34 491.56L460.92 491.8L460.49 492.04L460.06 492.26L459.63 492.46L459.19 492.65L458.74 492.83L458.29 492.99L457.84 493.14L457.39 493.28L456.93 493.4L456.47 493.51L456 493.6L455.54 493.68L455.07 493.75L454.59 493.8L454.12 493.83L453.64 493.85L453.16 493.86L452.68 493.85L452.2 493.83L451.71 493.79L451.22 493.74L450.74 493.67L450.25 493.58L449.76 493.48L449.27 493.37L448.78 493.24L448.28 493.09L447.79 492.93L447.3 492.76L410.5 492.76L410.5 516.76L474.5 516.76L474.5 478.36L464.9 488.76L464.53 489.12ZM445.04 370.48L443.28 370.68L441.51 370.95L439.75 371.29L438 371.71L436.24 372.19L434.5 372.76L432.9 372.76L432.54 372.94L432.17 373.12L431.81 373.31L431.44 373.5L431.07 373.69L430.69 373.89L430.32 374.09L429.94 374.29L429.57 374.5L429.19 374.71L428.81 374.92L428.43 375.13L428.05 375.35L427.67 375.57L427.29 375.79L426.91 376.02L426.53 376.25L426.15 376.48L425.78 376.72L425.4 376.96L425.03 377.2L424.65 377.44L424.28 377.69L423.91 377.94L423.55 378.19L423.19 378.45L422.82 378.71L422.47 378.97L422.11 379.24L421.76 379.51L421.42 379.78L421.07 380.05L420.73 380.33L420.4 380.61L420.07 380.89L419.75 381.18L419.43 381.47L419.11 381.76L418.8 382.06L418.5 382.36L417.88 382.95L411.16 389.33L410.44 390.02L407.24 393.06L406.36 393.89L397 402.79L395.8 403.93L390.68 408.79L389.32 410.08L386.5 412.76L293.7 500.76L306.5 513.56L312.12 508.22L317.62 503L323 497.9L328.24 492.92L333.36 488.06L338.35 483.32L347.96 474.2L352.57 469.82L365.66 457.4L369.76 453.5L373.74 449.72L384.93 439.1L388.41 435.8L391.76 432.62L394.98 429.56L398.08 426.62L401.05 423.8L406.61 418.52L414 411.5L416.22 409.4L418.3 407.42L422.09 403.82L423.8 402.2L425.38 400.7L426.83 399.32L428.16 398.06L429.36 396.92L430.44 395.9L431.38 395L432.2 394.22L432.9 393.56L433.63 392.91L434.39 392.3L435.16 391.73L435.96 391.18L436.78 390.67L437.61 390.19L438.46 389.75L439.33 389.34L440.21 388.96L441.1 388.62L442.01 388.31L442.92 388.03L443.85 387.79L444.78 387.59L445.73 387.41L446.67 387.27L447.63 387.17L448.58 387.1L449.54 387.06L450.5 387.06L451.46 387.09L452.42 387.16L453.37 387.26L454.33 387.39L455.28 387.56L456.22 387.77L457.15 388.01L458.08 388.29L458.99 388.6L459.9 388.94L460.79 389.33L461.67 389.74L462.54 390.19L463.39 390.68L464.22 391.21L465.04 391.76L465.84 392.36L466.61 392.99L467.37 393.65L468.1 394.36L468.8 395.15L469.47 395.96L470.1 396.79L470.69 397.63L471.25 398.5L471.77 399.37L472.26 400.27L472.71 401.17L473.12 402.09L473.5 403.02L473.84 403.96L474.15 404.9L474.42 405.86L474.65 406.82L474.85 407.79L475.01 408.76L475.14 409.73L475.23 410.71L475.28 411.68L475.3 412.66L475.28 413.63L475.23 414.6L475.14 415.57L475.01 416.53L474.85 417.49L474.65 418.44L474.42 419.38L474.15 420.31L473.84 421.23L473.5 422.14L473.12 423.04L472.71 423.92L472.26 424.79L471.77 425.65L471.25 426.48L470.69 427.3L470.1 428.09L469.47 428.87L468.8 429.62L468.1 430.36L467.97 430.49L467.81 430.64L467.63 430.82L466.05 432.41L465.7 432.76L465.33 433.13L464.93 433.52L464.51 433.94L464.07 434.39L463.6 434.86L463.11 435.35L462.59 435.86L462.05 436.4L461.49 436.97L460.9 437.56L460.29 438.17L459.65 438.8L458.99 439.46L457.6 440.86L456.87 441.59L456.11 442.34L455.33 443.12L453.7 444.76L452.85 445.61L451.97 446.48L451.07 447.38L450.15 448.31L449.2 449.26L448.23 450.23L447.23 451.22L446.21 452.24L444.1 454.36L453.7 477.56L483.3 444.76L484.07 443.85L484.81 442.92L485.53 441.97L486.22 441L486.89 440.01L487.54 439.01L488.15 437.99L488.75 436.95L489.31 435.9L489.85 434.83L490.36 433.75L490.85 432.66L491.3 431.56L491.73 430.44L492.13 429.32L492.5 428.18L492.85 427.04L493.16 425.88L493.45 424.72L493.7 423.56L493.92 422.38L494.12 421.21L494.28 420.02L494.42 418.84L494.52 417.65L494.59 416.46L494.63 415.26L494.63 414.07L494.61 412.87L494.55 411.68L494.46 410.49L494.33 409.3L494.18 408.11L493.98 406.93L493.76 405.75L493.5 404.58L493.2 403.41L492.87 402.25L492.5 401.1L492.1 399.96L491.41 398.24L490.66 396.56L489.84 394.93L488.98 393.34L488.05 391.8L487.07 390.3L486.04 388.85L484.96 387.45L483.83 386.1L482.65 384.79L481.43 383.54L480.16 382.34L478.86 381.19L477.51 380.09L476.13 379.05L474.7 378.06L473.25 377.12L471.76 376.24L470.25 375.42L468.7 374.66L467.13 373.95L465.53 373.3L463.91 372.72L462.26 372.19L460.6 371.73L458.92 371.33L457.22 370.99L455.51 370.72L453.79 370.51L452.05 370.37L450.31 370.29L448.55 370.29L446.8 370.35L445.04 370.48ZM122.5 476.76L186.5 476.76L186.5 452.76L122.5 452.76L122.5 476.76ZM410.5 476.76L435.3 476.76L428.9 460.76L428.77 460.35L428.66 459.93L428.56 459.5L428.48 459.06L428.4 458.61L428.34 458.15L428.28 457.69L428.24 457.22L428.2 456.76L428.17 456.29L428.15 455.83L428.13 455.36L428.12 454.91L428.11 454.46L428.1 454.02L428.1 453.58L428.1 453.16L428.1 452.76L410.5 452.76L410.5 476.76ZM394.5 476.76L394.5 452.76L368.9 476.76L394.5 476.76ZM202.5 476.76L296.1 476.76L320.9 452.76L202.5 452.76L202.5 476.76ZM449.97 403.99L449.41 404.05L448.86 404.14L448.3 404.27L447.75 404.42L447.2 404.61L446.66 404.82L446.13 405.07L445.6 405.34L445.09 405.65L444.59 405.99L444.1 406.36L411.3 436.76L439.3 436.76L456.9 419.16L457.27 418.76L457.61 418.34L457.91 417.91L458.19 417.45L458.44 416.98L458.65 416.49L458.84 415.99L458.99 415.48L459.11 414.95L459.2 414.42L459.27 413.88L459.3 413.33L459.3 412.78L459.27 412.23L459.2 411.67L459.11 411.11L458.99 410.56L458.84 410.01L458.65 409.46L458.44 408.92L458.19 408.38L457.91 407.86L457.61 407.35L457.27 406.84L456.9 406.36L456.5 405.99L456.09 405.65L455.65 405.34L455.2 405.07L454.72 404.82L454.24 404.61L453.74 404.42L453.22 404.27L452.7 404.14L452.16 404.05L451.62 403.99L451.08 403.96L450.52 403.96L449.97 403.99ZM122.5 436.76L186.5 436.76L186.5 412.76L122.5 412.76L122.5 436.76ZM202.5 436.76L337.7 436.76L363.3 412.76L202.5 412.76L202.5 436.76ZM125.49 373.39L125.29 374.03L125.1 374.66L124.92 375.3L124.74 375.93L124.57 376.57L124.41 377.2L124.26 377.84L124.12 378.47L123.98 379.11L123.85 379.74L123.72 380.38L123.6 381.02L123.49 381.65L123.39 382.29L123.29 382.92L123.2 383.56L123.11 384.19L123.04 384.83L122.96 385.46L122.9 386.1L122.83 386.73L122.78 387.37L122.73 388L122.68 388.64L122.64 389.27L122.61 389.91L122.58 390.54L122.55 391.18L122.53 391.82L122.52 392.45L122.51 393.09L122.5 393.72L122.5 394.36L122.5 396.76L186.5 396.76L186.5 372.76L125.7 372.76L125.49 373.39ZM202.5 396.76L380.1 396.76L404.9 372.76L202.5 372.76L202.5 396.76ZM373 319.39L372.67 319.6L372.1 319.96L368.72 322L365.29 323.95L361.83 325.78L358.32 327.52L354.78 329.14L351.21 330.67L347.61 332.08L343.97 333.4L340.31 334.6L336.63 335.71L332.92 336.7L329.19 337.6L325.44 338.38L321.68 339.07L317.9 339.64L314.12 340.12L310.32 340.48L306.52 340.75L302.71 340.9L298.9 340.96L295.09 340.9L291.28 340.75L287.48 340.48L283.68 340.12L279.9 339.64L276.12 339.07L272.36 338.38L268.61 337.6L264.88 336.7L261.17 335.71L257.49 334.6L253.83 333.4L250.19 332.08L246.59 330.67L243.02 329.14L239.48 327.52L235.97 325.78L232.51 323.95L229.08 322L225.7 319.96L224.8 319.39L224.61 319.27L224.18 319L210.5 310.36L208.37 311.23L194.95 316.69L193.25 317.39L191.6 318.06L190.01 318.71L188.47 319.33L186.98 319.94L185.55 320.52L184.18 321.08L178.1 323.56L177.05 323.99L175.1 324.78L174.21 325.14L173.38 325.48L172.59 325.8L171.86 326.1L171.19 326.37L169.03 327.25L168.62 327.42L167.98 327.68L167.3 327.96L166.22 328.39L165.16 328.83L164.1 329.3L163.05 329.78L162.02 330.28L160.99 330.79L159.97 331.32L158.96 331.87L157.96 332.44L156.98 333.02L156 333.62L155.03 334.23L154.08 334.86L153.13 335.5L152.2 336.16L151.27 336.83L150.36 337.51L149.46 338.21L148.58 338.93L147.7 339.66L146.84 340.4L145.98 341.15L145.14 341.92L144.32 342.7L143.5 343.5L142.7 344.3L141.91 345.12L141.14 345.95L140.37 346.79L139.63 347.64L138.89 348.51L138.17 349.38L137.46 350.27L136.76 351.17L136.08 352.07L135.42 352.99L134.77 353.92L134.13 354.86L133.51 355.8L132.9 356.76L431.3 356.76L432.08 356.52L432.87 356.29L433.65 356.08L434.44 355.87L435.23 355.67L436.03 355.48L436.82 355.3L437.62 355.13L438.42 354.97L439.23 354.82L440.03 354.68L440.83 354.55L441.64 354.42L442.45 354.31L443.25 354.21L444.06 354.12L444.87 354.04L445.68 353.97L446.49 353.91L447.3 353.86L448.11 353.82L448.92 353.79L449.73 353.77L450.54 353.76L451.35 353.76L452.15 353.78L452.96 353.8L453.77 353.84L454.57 353.89L455.38 353.94L456.18 354.01L456.98 354.09L457.78 354.19L458.57 354.29L459.37 354.41L460.16 354.53L460.95 354.67L461.73 354.82L462.52 354.98L463.3 355.16L462.69 354.26L462.08 353.37L461.45 352.5L460.8 351.63L460.15 350.77L459.49 349.92L458.81 349.09L458.12 348.26L457.42 347.44L456.71 346.63L455.99 345.83L455.26 345.05L454.51 344.27L453.76 343.51L452.99 342.75L452.22 342.01L451.43 341.28L450.63 340.56L449.82 339.85L449 339.16L448.17 338.47L447.33 337.8L446.48 337.14L445.62 336.49L444.75 335.86L443.86 335.24L442.97 334.63L442.07 334.03L441.16 333.45L440.24 332.88L439.31 332.33L438.37 331.78L437.42 331.26L436.46 330.74L435.49 330.24L434.51 329.76L433.52 329.28L432.52 328.83L431.52 328.38L430.5 327.96L387.3 310.36L373.19 319.27L373 319.39ZM348.66 294.59L348.54 294.7L348.42 294.81L348.3 294.92L348.18 295.03L348.06 295.13L347.93 295.23L347.81 295.32L347.69 295.42L347.56 295.51L347.44 295.6L347.31 295.69L347.19 295.78L347.06 295.86L346.93 295.94L346.8 296.02L346.67 296.1L346.53 296.18L346.4 296.26L346.26 296.33L346.13 296.4L345.99 296.48L345.85 296.55L345.7 296.61L345.56 296.68L345.41 296.75L345.27 296.82L345.12 296.88L344.96 296.94L344.81 297.01L344.65 297.07L344.49 297.13L344.33 297.19L344.16 297.26L344 297.32L343.83 297.38L343.65 297.44L343.48 297.5L343.3 297.56L321.7 307.16L320.61 307.62L319.52 308.07L318.41 308.49L317.29 308.88L316.16 309.26L315.03 309.6L313.88 309.93L312.73 310.23L311.57 310.5L310.4 310.76L309.23 310.98L308.05 311.19L306.87 311.37L305.68 311.52L304.49 311.66L303.29 311.76L302.1 311.85L300.9 311.91L299.7 311.94L298.5 311.96L297.3 311.94L296.1 311.91L294.9 311.85L293.71 311.76L292.51 311.66L291.32 311.52L290.13 311.37L288.95 311.19L287.77 310.98L286.6 310.76L285.43 310.5L284.27 310.23L283.12 309.93L281.97 309.6L280.84 309.26L279.71 308.88L278.59 308.49L277.48 308.07L276.39 307.62L275.3 307.16L253.7 297.56L253.58 297.5L253.45 297.43L253.33 297.36L253.2 297.29L253.07 297.22L252.93 297.15L252.8 297.07L252.66 296.99L252.53 296.91L252.39 296.83L252.25 296.75L252.11 296.66L251.97 296.58L251.83 296.49L251.69 296.4L251.55 296.32L251.41 296.23L251.27 296.14L251.14 296.05L251 295.96L250.87 295.87L250.73 295.78L250.6 295.69L250.47 295.6L250.35 295.51L250.23 295.42L250.1 295.34L249.99 295.25L249.87 295.16L249.76 295.08L249.66 295L249.55 294.92L249.45 294.84L249.36 294.77L249.27 294.69L249.19 294.62L249.11 294.55L249.03 294.48L248.96 294.42L248.9 294.36L248.34 294.58L247.94 294.74L247.19 295.04L246.9 295.16L246.26 295.41L245.91 295.55L245.54 295.7L245.15 295.86L244.74 296.02L244.31 296.19L242.39 296.96L241.86 297.17L240.15 297.86L239.54 298.1L238.91 298.35L238.26 298.61L233.15 300.66L231.51 301.31L230.66 301.65L228.9 302.36L229.63 302.88L230.53 303.52L230.74 303.67L231.7 304.36L233.09 305.35L233.21 305.44L234.39 306.28L234.43 306.31L234.5 306.36L237.46 308.17L240.46 309.89L243.5 311.52L246.57 313.05L249.68 314.49L252.82 315.84L255.99 317.1L259.18 318.26L262.41 319.33L265.65 320.31L268.92 321.19L272.2 321.98L275.5 322.68L278.82 323.28L282.14 323.79L285.48 324.21L288.83 324.54L292.18 324.77L295.54 324.91L298.9 324.96L302.26 324.91L305.62 324.77L308.97 324.54L312.32 324.21L315.66 323.79L318.98 323.28L322.3 322.68L325.6 321.98L328.88 321.19L332.15 320.31L335.39 319.33L338.62 318.26L341.81 317.1L344.98 315.84L348.12 314.49L351.23 313.05L354.3 311.52L357.34 309.89L360.34 308.17L363.3 306.36L363.7 306.07L364.04 305.83L364.14 305.76L364.59 305.44L364.71 305.35L365.27 304.95L365.43 304.84L366.1 304.36L366.28 304.23L367.06 303.67L367.27 303.52L368.17 302.88L368.41 302.71L368.9 302.36L363.86 300.34L363.09 300.03L361.61 299.44L360.9 299.16L359.54 298.61L358.89 298.35L358.26 298.1L357.06 297.62L353.49 296.19L353.06 296.02L352.65 295.86L352.26 295.7L351.89 295.55L351.54 295.41L349.14 294.45L349.01 294.4L348.9 294.36L348.78 294.48L348.66 294.59ZM290.46 140.69L286.44 140.87L282.43 141.11L278.42 141.42L274.41 141.8L270.41 142.25L266.42 142.76L262.43 143.35L258.45 144.01L254.48 144.73L250.52 145.52L246.57 146.39L242.63 147.32L238.71 148.32L234.79 149.39L230.9 150.53L227.01 151.73L223.15 153.01L219.3 154.36L218.5 154.36L218.5 217.56L218.53 219.65L218.63 221.74L218.78 223.81L219 225.87L219.27 227.92L219.61 229.96L220 231.98L220.45 233.98L220.96 235.96L221.53 237.93L222.15 239.88L222.82 241.81L223.55 243.71L224.33 245.59L225.17 247.45L226.05 249.29L226.99 251.1L227.98 252.88L229.01 254.63L230.1 256.36L231.23 258.05L232.42 259.72L233.64 261.35L234.92 262.95L236.23 264.51L237.6 266.04L239 267.53L240.45 268.99L241.94 270.4L243.47 271.78L245.05 273.12L246.66 274.41L248.31 275.67L250 276.88L251.73 278.04L253.49 279.16L255.29 280.23L257.13 281.26L259 282.23L260.9 283.16L282.5 292.76L283.28 293.11L284.07 293.44L284.87 293.76L285.66 294.05L286.47 294.33L287.28 294.59L288.09 294.84L288.91 295.06L289.73 295.27L290.55 295.46L291.38 295.63L292.21 295.78L293.04 295.92L293.87 296.03L294.71 296.13L295.54 296.21L296.38 296.28L297.22 296.32L298.06 296.35L298.9 296.36L299.74 296.35L300.58 296.32L301.42 296.28L302.26 296.21L303.09 296.13L303.93 296.03L304.76 295.92L305.59 295.78L306.42 295.63L307.25 295.46L308.07 295.27L308.89 295.06L309.71 294.84L310.52 294.59L311.33 294.33L312.14 294.05L312.93 293.76L313.73 293.44L314.52 293.11L315.3 292.76L336.1 283.16L338 282.23L339.87 281.26L341.71 280.23L343.51 279.16L345.27 278.04L347 276.88L348.69 275.67L350.34 274.41L351.95 273.12L353.53 271.78L355.06 270.4L356.55 268.99L358 267.53L359.4 266.04L360.77 264.51L362.08 262.95L363.36 261.35L364.59 259.72L365.77 258.05L366.9 256.36L367.99 254.63L369.02 252.88L370.01 251.1L370.95 249.29L371.83 247.45L372.67 245.59L373.45 243.71L374.18 241.81L374.85 239.88L375.48 237.93L376.04 235.96L376.55 233.98L377 231.98L377.39 229.96L377.73 227.92L378 225.87L378.22 223.81L378.38 221.74L378.47 219.65L378.5 217.56L378.5 154.36L377.7 154.36L373.85 153.01L369.99 151.73L366.1 150.53L362.21 149.39L358.29 148.32L354.37 147.32L350.43 146.39L346.48 145.52L342.52 144.73L338.55 144.01L334.57 143.35L330.58 142.76L326.59 142.25L322.59 141.8L318.58 141.42L314.57 141.11L310.56 140.87L306.54 140.69L302.52 140.59L298.5 140.56L294.48 140.59L290.46 140.69ZM191.56 181.14L190.94 181.4L190.35 181.7L189.81 182.04L189.3 182.43L188.83 182.85L188.4 183.31L188.01 183.81L187.66 184.33L187.36 184.89L187.1 185.48L186.89 186.09L186.72 186.72L186.6 187.38L186.52 188.06L186.5 188.76L186.5 203.16L186.52 203.59L186.57 204.03L186.65 204.49L186.77 204.95L186.92 205.42L187.1 205.89L187.31 206.36L187.56 206.83L187.85 207.29L188.16 207.73L188.51 208.17L188.89 208.59L189.31 208.99L189.76 209.37L190.24 209.73L190.75 210.06L191.3 210.36L202.5 215.96L202.5 185.56L192.9 180.76L192.21 180.92L191.56 181.14ZM394.5 215.96L405.7 210.36L406.25 210.07L406.76 209.76L407.24 209.43L407.69 209.09L408.11 208.74L408.49 208.36L408.84 207.97L409.15 207.57L409.44 207.14L409.69 206.7L409.9 206.25L410.08 205.77L410.23 205.28L410.35 204.78L410.43 204.25L410.48 203.71L410.5 203.16L410.5 188.76L410.48 188.06L410.4 187.38L410.28 186.72L410.11 186.09L409.9 185.48L409.64 184.89L409.34 184.33L408.99 183.81L408.6 183.31L408.17 182.85L407.7 182.43L407.19 182.04L406.65 181.7L406.06 181.4L405.44 181.14L404.79 180.92L404.1 180.76L394.5 185.56L394.5 215.96ZM272.17 68.8L269.87 68.94L267.6 69.17L265.35 69.48L263.14 69.88L260.95 70.37L258.81 70.94L256.7 71.59L254.62 72.31L252.59 73.12L250.59 74L248.64 74.96L246.74 75.98L244.88 77.08L243.07 78.25L241.31 79.48L239.6 80.78L237.94 82.15L236.34 83.57L234.8 85.06L233.31 86.6L231.89 88.2L230.53 89.86L229.23 91.57L227.99 93.33L226.83 95.14L225.73 97L224.7 98.9L223.74 100.85L222.86 102.84L222.06 104.88L221.33 106.95L220.68 109.06L220.11 111.21L219.63 113.39L219.23 115.61L218.91 117.85L218.68 120.13L218.55 122.43L218.5 124.76L218.5 137.56L222.41 136.27L226.33 135.05L230.26 133.89L234.21 132.8L238.17 131.78L242.14 130.82L246.12 129.93L250.12 129.11L254.12 128.35L258.13 127.66L262.14 127.03L266.16 126.47L270.19 125.97L274.23 125.54L278.27 125.18L282.31 124.88L286.35 124.65L290.4 124.49L294.45 124.39L298.5 124.36L302.55 124.39L306.6 124.49L310.65 124.65L314.69 124.88L318.73 125.18L322.77 125.54L326.81 125.97L330.84 126.47L334.86 127.03L338.88 127.66L342.88 128.35L346.88 129.11L350.88 129.93L354.86 130.82L358.83 131.78L362.79 132.8L366.74 133.89L370.67 135.05L374.59 136.27L378.5 137.56L378.5 124.76L378.45 122.43L378.32 120.13L378.09 117.85L377.77 115.61L377.37 113.39L376.89 111.21L376.32 109.06L375.67 106.95L374.94 104.88L374.14 102.84L373.26 100.85L372.3 98.9L371.27 97L370.17 95.14L369.01 93.33L367.77 91.57L366.47 89.86L365.11 88.2L363.69 86.6L362.2 85.06L360.66 83.57L359.06 82.15L357.4 80.78L355.69 79.48L353.93 78.25L352.12 77.08L350.26 75.98L348.36 74.96L346.41 74L344.41 73.12L342.38 72.31L340.3 71.59L338.19 70.94L336.05 70.37L333.86 69.88L331.65 69.48L329.4 69.17L327.13 68.94L324.83 68.8L322.5 68.76L274.5 68.76L272.17 68.8Z" id="d2wenIa0UH"></path></defs><g><g><g><use xlink:href="#eFwPlevRc" opacity="0.8" fill="#454545" fill-opacity="1"></use></g><g><use xlink:href="#gVLpY1RV1" opacity="1" fill="url(#gradientagXc4qlzF)"></use><g clip-path="url(#clipabRmsZpCw)"><use xlink:href="#gVLpY1RV1" opacity="1" fill-opacity="0" stroke="#dbdbdb" stroke-width="20" stroke-opacity="1"></use></g></g><g><use xlink:href="#k5xAMtLz4" opacity="1" fill="#3f3f3f" fill-opacity="1"></use><g><use xlink:href="#k5xAMtLz4" opacity="1" fill-opacity="0" stroke="#000000" stroke-width="1" stroke-opacity="0"></use></g></g><g><use xlink:href="#b3YPEMKd3V" opacity="1" fill="#b4b4b5" fill-opacity="1"></use><g><use xlink:href="#b3YPEMKd3V" opacity="1" fill-opacity="0" stroke="#000000" stroke-width="1" stroke-opacity="0"></use></g></g><g><use xlink:href="#b3UOllDlm" opacity="1" fill="#b4b4b5" fill-opacity="1"></use><g><use xlink:href="#b3UOllDlm" opacity="1" fill-opacity="0" stroke="#000000" stroke-width="1" stroke-opacity="0"></use></g></g><g><use xlink:href="#blHbSVcAc" opacity="1" fill="#2b2b2b" fill-opacity="1"></use><g><use xlink:href="#blHbSVcAc" opacity="1" fill-opacity="0" stroke="#000000" stroke-width="1" stroke-opacity="0"></use></g></g><g><use xlink:href="#a33oUG3BCQ" opacity="1" fill="#2b2b2b" fill-opacity="1"></use><g><use xlink:href="#a33oUG3BCQ" opacity="1" fill-opacity="0" stroke="#000000" stroke-width="1" stroke-opacity="0"></use></g></g><g><use xlink:href="#a1DvfStEHc" opacity="1" fill="#d6d7d8" fill-opacity="1"></use><g><use xlink:href="#a1DvfStEHc" opacity="1" fill-opacity="0" stroke="#000000" stroke-width="1" stroke-opacity="0"></use></g></g><g><use xlink:href="#cxPddF666" opacity="1" fill="#ce7c5f" fill-opacity="1"></use><g><use xlink:href="#cxPddF666" opacity="1" fill-opacity="0" stroke="#000000" stroke-width="1" stroke-opacity="0"></use></g></g><g><use xlink:href="#a1hj2wYJRI" opacity="1" fill="#bc6d55" fill-opacity="1"></use><g><use xlink:href="#a1hj2wYJRI" opacity="1" fill-opacity="0" stroke="#000000" stroke-width="1" stroke-opacity="0"></use></g></g><g><use xlink:href="#agavw3fc" opacity="1" fill="#bc6d55" fill-opacity="1"></use><g><use xlink:href="#agavw3fc" opacity="1" fill-opacity="0" stroke="#000000" stroke-width="1" stroke-opacity="0"></use></g></g><g><use xlink:href="#bP5NhUDyT" opacity="1" fill="#3f3f3f" fill-opacity="1"></use><g><use xlink:href="#bP5NhUDyT" opacity="1" fill-opacity="0" stroke="#000000" stroke-width="1" stroke-opacity="0"></use></g></g><g><use xlink:href="#c16yu9zILn" opacity="1" fill="#2b2b2b" fill-opacity="1"></use><g><use xlink:href="#c16yu9zILn" opacity="1" fill-opacity="0" stroke="#000000" stroke-width="1" stroke-opacity="0"></use></g></g><g><use xlink:href="#d9pMmMZnI" opacity="1" fill="#ce7c5f" fill-opacity="1"></use><g><use xlink:href="#d9pMmMZnI" opacity="1" fill-opacity="0" stroke="#000000" stroke-width="1" stroke-opacity="0"></use></g></g><g><use xlink:href="#fj0Ok4ZKo" opacity="1" fill="#000000" fill-opacity="1"></use><g><use xlink:href="#fj0Ok4ZKo" opacity="1" fill-opacity="0" stroke="#000000" stroke-width="1" stroke-opacity="0"></use></g></g><g><use xlink:href="#d2wenIa0UH" opacity="1" fill="#000000" fill-opacity="1"></use><g><use xlink:href="#d2wenIa0UH" opacity="1" fill-opacity="0" stroke="#000000" stroke-width="1" stroke-opacity="0"></use></g></g></g></g></svg>