<?xml version="1.0" encoding="UTF-8" standalone="no"?>
<!DOCTYPE svg PUBLIC "-//W3C//DTD SVG 1.1//EN" "http://www.w3.org/Graphics/SVG/1.1/DTD/svg11.dtd">
<svg version="1.1" xmlns="http://www.w3.org/2000/svg" xmlns:xlink="http://www.w3.org/1999/xlink" preserveAspectRatio="xMidYMid meet" viewBox="0 0 640 640" width="35" height="35"><defs><path d="M470 20C552.84 20 620 87.16 620 170C620 260 620 380 620 470C620 552.84 552.84 620 470 620C380 620 260 620 170 620C87.16 620 20 552.84 20 470C20 380 20 260 20 170C20 87.16 87.16 20 170 20C260 20 380 20 470 20Z" id="nLTjbY0O"></path><path d="M450 0C532.84 0 600 67.16 600 150C600 240 600 360 600 450C600 532.84 532.84 600 450 600C360 600 240 600 150 600C67.16 600 0 532.84 0 450C0 360 0 240 0 150C0 67.16 67.16 0 150 0C240 0 360 0 450 0Z" id="b8jyiX4zU"></path><linearGradient id="gradientc3ArZ2INS" gradientUnits="userSpaceOnUse" x1="555.81" y1="59.8" x2="45.39" y2="569.38"><stop style="stop-color: #a7fc6f;stop-opacity: 1" offset="0%"></stop><stop style="stop-color: #2b2e38;stop-opacity: 1" offset="100%"></stop><stop style="stop-color: #010000;stop-opacity: 1" offset="100%"></stop></linearGradient><clipPath id="clipauWRx6rEX"><use xlink:href="#b8jyiX4zU" opacity="1"></use></clipPath><path d="M467.92 60.03L468.27 60.06L468.62 60.11L468.97 60.17L469.31 60.24L469.65 60.33L469.99 60.43L470.33 60.55L470.66 60.67L470.99 60.82L471.31 60.97L471.63 61.14L471.95 61.32L472.25 61.52L472.55 61.73L472.85 61.95L473.14 62.19L473.42 62.44L473.69 62.7L553.4 142.98L553.66 143.25L553.91 143.53L554.15 143.82L554.37 144.12L554.57 144.42L554.77 144.73L554.95 145.05L555.12 145.37L555.27 145.7L555.41 146.03L555.54 146.36L555.65 146.7L555.75 147.04L555.84 147.39L555.91 147.73L555.97 148.08L556.02 148.43L556.05 148.79L556.07 149.14L556.08 149.49L556.07 149.85L556.05 150.2L556.02 150.55L555.97 150.9L555.91 151.25L555.84 151.6L555.75 151.94L555.65 152.28L555.54 152.62L555.41 152.96L555.27 153.29L555.12 153.61L554.95 153.93L554.77 154.25L554.57 154.56L554.37 154.86L554.15 155.16L553.91 155.45L553.66 155.73L553.4 156L553.1 156.31L552.83 156.57L552.55 156.82L552.26 157.06L551.97 157.28L551.67 157.49L551.36 157.68L551.05 157.87L550.73 158.03L550.4 158.19L550.08 158.33L549.74 158.46L549.41 158.57L549.07 158.67L548.73 158.76L548.38 158.84L548.03 158.9L547.68 158.94L547.34 158.98L546.98 159L546.63 159L546.28 159L545.93 158.98L545.58 158.94L545.23 158.9L544.89 158.84L544.54 158.76L544.2 158.67L543.86 158.57L543.52 158.46L543.19 158.33L542.86 158.19L542.54 158.03L542.22 157.87L541.91 157.68L541.6 157.49L541.3 157.28L541.01 157.06L540.72 156.82L540.44 156.57L540.17 156.31L460.45 76.03L460.19 75.75L459.94 75.47L459.71 75.18L459.49 74.88L459.28 74.58L459.09 74.27L458.91 73.96L458.74 73.64L458.59 73.31L458.44 72.98L458.32 72.65L458.2 72.31L458.1 71.97L458.02 71.62L457.94 71.27L457.88 70.92L457.84 70.57L457.8 70.22L457.78 69.87L457.78 69.51L457.78 69.16L457.8 68.81L457.84 68.46L457.88 68.1L457.94 67.76L458.02 67.41L458.1 67.06L458.2 66.72L458.32 66.38L458.44 66.05L458.59 65.72L458.74 65.39L458.91 65.07L459.09 64.76L459.28 64.45L459.49 64.14L459.71 63.85L459.94 63.56L460.19 63.27L460.45 63L460.76 62.7L461.03 62.44L461.31 62.19L461.59 61.95L461.89 61.73L462.19 61.52L462.5 61.32L462.81 61.14L463.13 60.97L463.45 60.82L463.78 60.67L464.11 60.55L464.45 60.43L464.79 60.33L465.13 60.24L465.47 60.17L465.82 60.11L466.17 60.06L466.52 60.03L466.87 60.01L467.22 60L467.57 60.01L467.92 60.03Z" id="a2uybJUBsp"></path><path d="M182.63 430.5L182.9 430.52L183.18 430.56L183.45 430.61L183.72 430.67L183.99 430.74L184.25 430.82L184.52 430.91L184.78 431.01L185.04 431.12L185.29 431.24L185.54 431.37L185.79 431.51L186.03 431.67L186.26 431.83L186.49 432.01L186.72 432.19L186.94 432.39L187.15 432.59L187.36 432.81L187.55 433.03L187.74 433.26L187.91 433.49L188.07 433.73L188.22 433.97L188.37 434.22L188.5 434.47L188.62 434.73L188.73 434.99L188.83 435.25L188.92 435.51L189 435.78L189.06 436.05L189.12 436.33L189.17 436.6L189.21 436.88L189.23 437.15L189.25 437.43L189.25 437.71L189.25 437.98L189.23 438.26L189.21 438.54L189.17 438.81L189.12 439.09L189.06 439.36L189 439.63L188.92 439.9L188.83 440.16L188.73 440.43L188.62 440.69L188.5 440.94L188.37 441.19L188.22 441.44L188.07 441.68L187.91 441.92L187.74 442.15L187.55 442.38L187.36 442.6L187.15 442.82L89.57 541.09L89.47 541.2L89.36 541.3L89.25 541.4L89.14 541.49L89.03 541.59L88.91 541.68L88.8 541.77L88.68 541.85L88.57 541.94L88.45 542.02L88.33 542.1L88.21 542.17L88.08 542.24L87.96 542.31L87.84 542.38L87.71 542.45L87.58 542.51L87.46 542.57L87.33 542.63L87.2 542.68L87.07 542.73L86.94 542.78L86.81 542.83L86.67 542.87L86.54 542.91L86.41 542.95L86.27 542.99L86.14 543.02L86 543.05L85.87 543.08L85.73 543.1L85.59 543.13L85.46 543.15L85.32 543.16L85.18 543.18L85.05 543.19L84.91 543.2L84.77 543.21L84.63 543.21L84.5 543.21L84.36 543.21L84.22 543.21L84.08 543.2L83.95 543.19L83.81 543.18L83.67 543.16L83.53 543.15L83.4 543.13L83.26 543.1L83.12 543.08L82.99 543.05L82.85 543.02L82.72 542.99L82.59 542.95L82.45 542.91L82.32 542.87L82.19 542.83L82.05 542.78L81.92 542.73L81.79 542.68L81.66 542.63L81.54 542.57L81.41 542.51L81.28 542.45L81.16 542.38L81.03 542.31L80.91 542.24L80.79 542.17L80.67 542.1L80.55 542.02L80.43 541.94L80.31 541.85L80.19 541.77L80.08 541.68L79.96 541.59L79.85 541.49L79.74 541.4L79.63 541.3L79.52 541.2L79.42 541.09L79.21 540.88L79.02 540.66L78.84 540.43L78.66 540.2L78.5 539.96L78.35 539.72L78.2 539.47L78.07 539.22L77.95 538.96L77.84 538.7L77.74 538.44L77.65 538.17L77.57 537.9L77.5 537.63L77.45 537.36L77.4 537.09L77.36 536.81L77.34 536.54L77.32 536.26L77.32 535.98L77.32 535.7L77.34 535.43L77.36 535.15L77.4 534.87L77.45 534.6L77.5 534.33L77.57 534.06L77.65 533.79L77.74 533.52L77.84 533.26L77.95 533L78.07 532.74L78.2 532.49L78.35 532.25L78.5 532L78.66 531.76L78.84 531.53L79.02 531.3L79.21 531.08L79.42 530.87L177 432.59L177.21 432.39L177.43 432.19L177.66 432.01L177.89 431.83L178.13 431.67L178.37 431.51L178.61 431.37L178.86 431.24L179.12 431.12L179.37 431.01L179.63 430.91L179.9 430.82L180.17 430.74L180.43 430.67L180.7 430.61L180.98 430.56L181.25 430.52L181.53 430.5L181.8 430.48L182.08 430.48L182.35 430.48L182.63 430.5Z" id="c10IWsUwd5"></path><path d="M228.39 423.08C216.77 434.78 210.32 441.28 209.03 442.58C203.14 448.51 193.6 448.51 187.71 442.58C186.56 441.42 177.35 432.15 176.2 430.99C170.32 425.06 170.32 415.45 176.2 409.52C177.49 408.22 183.95 401.72 195.56 390.02" id="aaSb9s6ot"></path><path d="M313.59 390.52L311.91 392.17L310.2 393.79L308.45 395.37L306.68 396.9L304.87 398.39L303.04 399.84L301.18 401.25L299.29 402.61L297.38 403.93L295.44 405.21L293.47 406.44L291.49 407.63L289.48 408.78L287.44 409.88L285.39 410.93L283.31 411.94L281.22 412.91L279.1 413.83L276.97 414.7L274.81 415.53L272.65 416.31L270.46 417.04L268.26 417.73L266.04 418.36L263.81 418.96L261.57 419.5L259.32 419.99L257.05 420.44L254.77 420.84L252.48 421.18L250.18 421.48L247.88 421.73L245.56 421.93L243.24 422.08L240.91 422.18L238.58 422.23L236.24 422.22L233.9 422.17L231.55 422.06L229.2 421.9L227.91 421.78L226.63 421.61L225.36 421.39L224.11 421.13L222.88 420.82L221.67 420.48L220.47 420.09L219.29 419.66L218.14 419.19L217 418.68L215.89 418.13L214.79 417.54L213.73 416.92L212.68 416.26L211.66 415.56L210.67 414.83L209.7 414.07L208.76 413.28L207.85 412.45L206.97 411.59L206.12 410.7L205.29 409.79L204.51 408.84L203.75 407.86L203.02 406.86L202.33 405.84L201.68 404.79L201.06 403.71L200.48 402.61L199.93 401.49L199.43 400.34L198.96 399.18L198.53 397.99L198.15 396.79L197.8 395.56L197.5 394.32L197.24 393.06L197.02 391.79L196.85 390.5L196.73 389.2L196.57 386.83L196.47 384.47L196.41 382.11L196.41 379.76L196.46 377.41L196.55 375.06L196.7 372.72L196.9 370.39L197.15 368.07L197.44 365.76L197.79 363.45L198.18 361.16L198.63 358.87L199.12 356.6L199.66 354.34L200.25 352.1L200.88 349.87L201.56 347.65L202.29 345.45L203.06 343.27L203.89 341.1L204.75 338.95L205.67 336.82L206.62 334.71L207.63 332.62L208.67 330.55L209.77 328.5L210.9 326.48L212.09 324.47L213.31 322.5L214.58 320.54L215.89 318.62L217.24 316.71L218.64 314.84L220.08 313L221.56 311.18L223.08 309.39L224.65 307.63L226.25 305.91L227.9 304.21L380.54 150.48L466.24 236.78L313.59 390.52Z" id="b1fQXrGibv"></path><path d="M417.59 285.77L313.59 390.52L311.91 392.17L310.2 393.79L308.45 395.36L306.68 396.9L304.87 398.39L303.04 399.84L301.18 401.25L299.29 402.61L297.38 403.93L295.44 405.21L293.47 406.44L291.49 407.63L289.48 408.77L287.44 409.87L285.39 410.93L283.31 411.94L281.22 412.91L279.1 413.82L276.97 414.7L274.81 415.52L272.65 416.3L270.46 417.04L268.26 417.72L266.04 418.36L263.81 418.95L261.57 419.5L259.32 419.99L257.05 420.44L254.77 420.84L252.48 421.18L250.18 421.48L247.88 421.73L245.56 421.93L243.24 422.08L240.91 422.18L238.58 422.23L236.24 422.22L233.9 422.17L231.55 422.06L229.2 421.9L228.19 421.81L227.19 421.69L226.19 421.54L225.21 421.36L224.23 421.15L223.26 420.92L222.31 420.67L221.36 420.38L220.43 420.07L219.51 419.74L218.6 419.38L217.7 419L216.82 418.59L215.95 418.16L215.09 417.71L214.25 417.23L213.42 416.73L212.61 416.21L211.81 415.67L211.03 415.11L210.27 414.52L209.52 413.92L208.78 413.3L208.07 412.65L207.37 411.99L206.69 411.31L206.03 410.61L205.39 409.89L204.77 409.16L204.16 408.41L203.58 407.64L203.02 406.85L202.47 406.05L201.95 405.24L201.46 404.41L200.98 403.56L200.52 402.7L200.09 401.83L199.68 400.94L199.3 400.04L199.55 400.14L199.8 400.24L200.06 400.34L200.31 400.44L200.57 400.54L200.83 400.63L201.08 400.72L201.34 400.81L201.6 400.9L201.86 400.99L202.13 401.07L202.39 401.16L202.65 401.24L202.92 401.32L203.18 401.39L203.45 401.47L203.71 401.54L203.98 401.61L204.25 401.68L204.52 401.74L204.79 401.81L205.06 401.87L205.33 401.93L205.6 401.99L205.88 402.04L206.15 402.1L206.42 402.15L206.7 402.2L206.98 402.25L207.25 402.29L207.53 402.34L207.81 402.38L208.09 402.41L208.37 402.45L208.65 402.49L208.93 402.52L209.21 402.55L209.49 402.58L209.78 402.6L210.06 402.63L212.41 402.78L214.76 402.89L217.1 402.95L219.44 402.95L221.77 402.9L224.1 402.8L226.42 402.65L228.73 402.45L231.04 402.2L233.34 401.91L235.63 401.56L237.91 401.16L240.17 400.71L242.43 400.22L244.67 399.68L246.9 399.08L249.12 398.45L251.32 397.76L253.5 397.03L255.67 396.25L257.82 395.42L259.96 394.55L262.07 393.63L264.17 392.66L266.24 391.65L268.3 390.6L270.33 389.49L272.34 388.35L274.33 387.16L276.29 385.93L278.23 384.65L280.15 383.33L282.03 381.97L283.89 380.56L285.73 379.11L287.53 377.62L289.31 376.08L291.05 374.51L292.77 372.89L294.45 371.23L398.45 266.49L415.76 249.06L447.09 217.51L466.24 236.78L417.59 285.77Z" id="a4jzEAPngD"></path><path d="M281.86 250.07L282.08 250.09L282.38 250.13L282.76 250.18L283.21 250.26L283.74 250.37L284.34 250.5L285.01 250.67L285.75 250.88L286.55 251.13L287.41 251.43L288.32 251.77L289.29 252.17L290.32 252.62L291.39 253.13L292.5 253.71L293.66 254.36L294.87 255.07L296.1 255.86L297.38 256.73L298.68 257.69L300.02 258.72L301.38 259.85L302.77 261.08L304.17 262.4L305.6 263.82L307.04 265.34L308.49 266.98L309.96 268.72L311.43 270.59L312.9 272.57L314.38 274.68L315.85 276.91L317.32 279.28L318.79 281.78L320.24 284.42L321.69 287.2L323.11 290.12L324.52 293.2L325.94 296.27L327.38 299.19L328.85 301.94L330.33 304.55L331.83 307.01L333.35 309.33L334.88 311.51L336.41 313.56L337.95 315.48L339.49 317.27L341.03 318.95L342.56 320.5L344.09 321.95L345.6 323.28L347.1 324.51L348.57 325.64L350.03 326.68L351.46 327.62L352.86 328.48L354.23 329.25L355.56 329.94L356.86 330.56L358.12 331.11L359.33 331.6L360.49 332.02L361.6 332.38L362.66 332.69L363.66 332.95L364.59 333.17L365.47 333.34L366.27 333.48L367.01 333.59L367.67 333.66L368.25 333.72L368.75 333.75L369.17 333.77L369.5 333.78L369.74 333.78L369.89 333.77L369.94 333.77L313.59 390.52L311.91 392.17L310.2 393.79L308.45 395.37L306.68 396.9L304.87 398.39L303.04 399.84L301.18 401.25L299.29 402.61L297.38 403.93L295.44 405.21L293.47 406.44L291.49 407.63L289.48 408.78L287.44 409.88L285.39 410.93L283.31 411.94L281.22 412.91L279.1 413.83L276.97 414.7L274.81 415.53L272.65 416.31L270.46 417.04L268.26 417.73L266.04 418.37L263.81 418.96L261.57 419.5L259.32 419.99L257.05 420.44L254.77 420.84L252.48 421.19L250.18 421.49L247.88 421.73L245.56 421.93L243.24 422.08L240.91 422.18L238.58 422.23L236.24 422.23L233.9 422.17L231.55 422.07L229.2 421.91L227.91 421.78L226.63 421.61L225.36 421.39L224.12 421.13L222.88 420.83L221.67 420.48L220.47 420.09L219.3 419.66L218.14 419.19L217 418.68L215.89 418.13L214.8 417.54L213.73 416.92L212.68 416.26L211.66 415.57L210.67 414.84L209.7 414.08L208.76 413.28L207.85 412.45L206.97 411.59L206.12 410.71L205.3 409.79L204.51 408.84L203.75 407.87L203.03 406.87L202.34 405.84L201.68 404.79L201.06 403.71L200.48 402.61L199.94 401.49L199.43 400.35L198.96 399.18L198.53 398L198.15 396.79L197.8 395.57L197.5 394.33L197.24 393.07L197.02 391.79L196.85 390.51L196.73 389.2L196.57 386.84L196.47 384.47L196.41 382.11L196.41 379.76L196.46 377.41L196.55 375.06L196.7 372.73L196.9 370.39L197.15 368.07L197.44 365.76L197.79 363.45L198.18 361.16L198.63 358.87L199.12 356.6L199.66 354.34L200.25 352.1L200.88 349.87L201.56 347.65L202.29 345.45L203.06 343.27L203.89 341.1L204.75 338.95L205.67 336.82L206.62 334.71L207.63 332.62L208.67 330.55L209.77 328.5L210.9 326.48L212.09 324.47L213.31 322.5L214.58 320.54L215.89 318.62L217.24 316.71L218.64 314.84L220.08 313L221.56 311.18L223.08 309.39L224.65 307.63L226.25 305.91L227.9 304.21L281.68 250.05L281.73 250.05L281.86 250.07Z" id="ad7BG5cyq"></path><path d="M345.79 323.43L346.81 324.28L347.82 325.07L348.82 325.82L349.81 326.52L350.79 327.18L351.76 327.8L352.71 328.38L353.65 328.92L354.57 329.43L355.48 329.9L356.37 330.33L357.24 330.73L358.09 331.1L358.92 331.44L359.73 331.74L360.51 332.02L361.27 332.28L362.01 332.5L362.72 332.71L363.4 332.89L364.06 333.05L364.69 333.19L365.28 333.31L365.85 333.41L366.38 333.5L366.89 333.57L367.35 333.63L367.78 333.67L368.18 333.71L368.54 333.74L368.86 333.75L369.14 333.77L369.38 333.77L369.58 333.77L369.73 333.77L369.85 333.77L369.91 333.77L369.94 333.77L313.59 390.52L311.91 392.17L310.2 393.79L308.45 395.36L306.68 396.9L304.87 398.39L303.04 399.84L301.18 401.25L299.29 402.61L297.38 403.93L295.44 405.21L293.47 406.44L291.49 407.63L289.48 408.77L287.44 409.87L285.39 410.93L283.31 411.94L281.22 412.91L279.1 413.82L276.97 414.7L274.81 415.52L272.65 416.3L270.46 417.04L268.26 417.72L266.04 418.36L263.81 418.95L261.57 419.5L259.32 419.99L257.05 420.44L254.77 420.84L252.48 421.18L250.18 421.48L247.88 421.73L245.56 421.93L243.24 422.08L240.91 422.18L238.58 422.23L236.24 422.22L233.9 422.17L231.55 422.06L229.2 421.9L228.19 421.81L227.19 421.69L226.19 421.54L225.21 421.36L224.23 421.15L223.26 420.92L222.31 420.67L221.36 420.38L220.43 420.07L219.51 419.74L218.6 419.38L217.7 419L216.82 418.59L215.95 418.16L215.09 417.71L214.25 417.23L213.42 416.73L212.61 416.21L211.81 415.67L211.03 415.11L210.27 414.52L209.52 413.92L208.78 413.3L208.07 412.65L207.37 411.99L206.69 411.31L206.03 410.61L205.39 409.89L204.77 409.16L204.16 408.41L203.58 407.64L203.02 406.85L202.47 406.05L201.95 405.24L201.46 404.41L200.98 403.56L200.52 402.7L200.09 401.83L199.68 400.94L199.3 400.04L199.55 400.14L199.8 400.24L200.06 400.34L200.31 400.44L200.57 400.54L200.83 400.63L201.08 400.72L201.34 400.81L201.6 400.9L201.86 400.99L202.13 401.07L202.39 401.16L202.65 401.24L202.92 401.32L203.18 401.39L203.45 401.47L203.71 401.54L203.98 401.61L204.25 401.68L204.52 401.74L204.79 401.81L205.06 401.87L205.33 401.93L205.6 401.99L205.88 402.04L206.15 402.1L206.42 402.15L206.7 402.2L206.98 402.25L207.25 402.29L207.53 402.34L207.81 402.38L208.09 402.41L208.37 402.45L208.65 402.49L208.93 402.52L209.21 402.55L209.49 402.58L209.78 402.6L210.06 402.63L212.41 402.78L214.76 402.89L217.1 402.95L219.44 402.95L221.77 402.9L224.1 402.8L226.42 402.65L228.73 402.45L231.04 402.2L233.34 401.91L235.63 401.56L237.91 401.16L240.17 400.71L242.43 400.22L244.67 399.68L246.9 399.08L249.12 398.45L251.32 397.76L253.5 397.03L255.67 396.25L257.82 395.42L259.96 394.55L262.07 393.63L264.17 392.66L266.24 391.65L268.3 390.6L270.33 389.49L272.34 388.35L274.33 387.16L276.29 385.93L278.23 384.65L280.15 383.33L282.03 381.97L283.89 380.56L285.73 379.11L287.53 377.62L289.31 376.08L291.05 374.51L292.77 372.89L294.45 371.23L343.73 321.61L344.76 322.55L345.79 323.43Z" id="m3P2ysFvYO"></path><path d="M376.74 117.71L377.17 117.75L377.6 117.81L378.03 117.88L378.45 117.97L378.88 118.08L379.29 118.21L379.71 118.35L380.12 118.5L380.52 118.68L380.92 118.87L381.31 119.08L381.7 119.3L382.07 119.54L382.44 119.8L382.81 120.07L383.16 120.36L383.51 120.67L383.84 120.99L495.52 233.47L495.84 233.8L496.14 234.15L496.43 234.51L496.7 234.87L496.96 235.24L497.2 235.63L497.42 236.01L497.63 236.41L497.82 236.81L497.99 237.22L498.15 237.63L498.29 238.04L498.41 238.47L498.52 238.89L498.61 239.32L498.68 239.75L498.74 240.18L498.78 240.61L498.81 241.05L498.81 241.48L498.81 241.92L498.78 242.35L498.74 242.78L498.68 243.22L498.61 243.65L498.52 244.07L498.41 244.5L498.29 244.92L498.15 245.34L497.99 245.75L497.82 246.15L497.63 246.55L497.42 246.95L497.2 247.34L496.96 247.72L496.7 248.09L496.43 248.46L496.14 248.81L495.84 249.16L495.52 249.5L495.15 249.87L494.81 250.19L494.47 250.5L494.11 250.79L493.75 251.07L493.38 251.32L493 251.56L492.62 251.79L492.23 251.99L491.83 252.19L491.42 252.36L491.01 252.52L490.6 252.66L490.18 252.78L489.76 252.89L489.34 252.98L488.91 253.06L488.48 253.11L488.05 253.16L487.62 253.18L487.19 253.19L486.76 253.18L486.32 253.16L485.89 253.11L485.46 253.06L485.04 252.98L484.61 252.89L484.19 252.78L483.77 252.66L483.36 252.52L482.95 252.36L482.55 252.19L482.15 251.99L481.76 251.79L481.37 251.56L480.99 251.32L480.62 251.07L480.26 250.79L479.91 250.5L479.56 250.19L479.23 249.87L367.55 137.4L367.23 137.06L366.92 136.71L366.64 136.36L366.36 135.99L366.11 135.62L365.87 135.24L365.65 134.85L365.44 134.45L365.25 134.05L365.08 133.65L364.92 133.23L364.78 132.82L364.66 132.4L364.55 131.97L364.46 131.55L364.38 131.12L364.33 130.68L364.29 130.25L364.26 129.82L364.25 129.38L364.26 128.95L364.29 128.51L364.33 128.08L364.38 127.65L364.46 127.22L364.55 126.79L364.66 126.36L364.78 125.94L364.92 125.53L365.08 125.12L365.25 124.71L365.44 124.31L365.65 123.91L365.87 123.53L366.11 123.14L366.36 122.77L366.64 122.41L366.92 122.05L367.23 121.7L367.55 121.37L367.92 120.99L368.25 120.67L368.6 120.36L368.95 120.07L369.32 119.8L369.69 119.54L370.06 119.3L370.45 119.08L370.84 118.87L371.24 118.68L371.64 118.5L372.05 118.35L372.47 118.21L372.88 118.08L373.31 117.97L373.73 117.88L374.16 117.81L374.59 117.75L375.02 117.71L375.45 117.68L375.88 117.67L376.31 117.68L376.74 117.71Z" id="f6AzUqTiHh"></path><path d="M496.04 234.06L496.67 234.88L497.21 235.75L497.67 236.65L498.04 237.58L498.33 238.54L498.54 239.51L498.67 240.49L498.71 241.48L498.67 242.47L498.54 243.45L498.33 244.42L498.04 245.38L497.67 246.31L497.21 247.21L496.67 248.08L496.04 248.9L495.33 249.68L494.56 250.4L493.74 251.03L492.88 251.57L491.98 252.03L491.06 252.41L490.11 252.7L489.15 252.91L488.17 253.04L487.19 253.08L486.21 253.04L485.23 252.91L484.27 252.7L483.32 252.41L482.4 252.03L481.5 251.57L480.64 251.03L479.82 250.4L479.04 249.68L467.41 237.96L483.7 221.56L495.33 233.28L496.04 234.06Z" id="aHnVG6GqP"></path><path d="M469.99 207.76L409.36 146.7L469.99 85.64L530.62 146.7L469.99 207.76Z" id="clQ4cx8l9"></path><path d="M470 207.76L453.15 190.79L491.53 152.12L492.02 151.62L492.47 151.1L492.91 150.56L493.32 150.01L493.7 149.45L494.06 148.88L494.39 148.3L494.7 147.71L494.99 147.1L495.25 146.49L495.48 145.88L495.69 145.25L495.88 144.62L496.04 143.98L496.17 143.34L496.29 142.69L496.37 142.05L496.43 141.4L496.47 140.74L496.48 140.09L496.47 139.44L496.43 138.78L496.37 138.13L496.29 137.48L496.17 136.84L496.04 136.2L495.88 135.56L495.69 134.93L495.48 134.3L495.25 133.68L494.99 133.07L494.7 132.47L494.39 131.88L494.06 131.29L493.7 130.72L493.32 130.16L492.91 129.61L492.47 129.08L492.02 128.56L491.53 128.05L459.71 96L470 85.64L530.63 146.7L470 207.76Z" id="eh38Zz1B0"></path><path d="M352.45 174.02L352.97 174.14L353.47 174.29L353.97 174.48L354.45 174.71L354.92 174.98L355.38 175.29L355.81 175.64L356.22 176.02L377.35 197.3L377.73 197.72L378.07 198.15L378.38 198.61L378.65 199.08L378.88 199.57L379.07 200.07L379.22 200.58L379.33 201.1L379.41 201.62L379.45 202.15L379.45 202.68L379.41 203.2L379.33 203.73L379.22 204.25L379.07 204.76L378.88 205.26L378.65 205.74L378.38 206.22L378.07 206.67L377.73 207.11L377.35 207.52L377.15 207.72L376.94 207.91L376.72 208.09L376.5 208.25L376.28 208.41L376.05 208.56L375.82 208.7L375.58 208.83L375.34 208.95L375.1 209.06L374.85 209.16L374.6 209.25L374.35 209.34L374.09 209.41L373.84 209.47L373.58 209.52L373.32 209.57L373.06 209.6L372.8 209.62L372.53 209.64L372.27 209.64L372.01 209.64L371.75 209.62L371.49 209.6L371.23 209.57L370.97 209.52L370.71 209.47L370.45 209.41L370.2 209.34L369.95 209.25L369.7 209.16L369.45 209.06L369.21 208.95L368.97 208.83L368.73 208.7L368.5 208.56L368.27 208.41L368.04 208.25L367.82 208.09L367.61 207.91L367.4 207.72L367.2 207.52L346.07 186.24L345.69 185.83L345.35 185.39L345.04 184.94L344.77 184.47L344.54 183.98L344.35 183.48L344.2 182.97L344.09 182.45L344.01 181.93L343.97 181.4L343.97 180.87L344.01 180.34L344.09 179.82L344.2 179.3L344.35 178.79L344.54 178.29L344.77 177.8L345.04 177.33L345.35 176.87L345.69 176.44L346.07 176.02L346.48 175.64L346.92 175.29L347.37 174.98L347.84 174.71L348.32 174.48L348.82 174.29L349.32 174.14L349.84 174.02L350.36 173.95L350.88 173.91L351.41 173.91L351.93 173.95L352.45 174.02Z" id="apwLErH3t"></path><path d="M326.7 199.36L327.22 199.44L327.74 199.55L328.24 199.7L328.74 199.9L329.22 200.13L329.69 200.4L330.14 200.7L330.58 201.05L330.99 201.43L352.12 222.71L352.5 223.13L352.84 223.56L353.15 224.02L353.41 224.49L353.64 224.98L353.83 225.48L353.99 225.99L354.1 226.51L354.18 227.03L354.22 227.56L354.22 228.09L354.18 228.61L354.1 229.14L353.99 229.66L353.83 230.17L353.64 230.67L353.41 231.15L353.15 231.63L352.84 232.08L352.5 232.52L352.12 232.93L351.91 233.13L351.71 233.32L351.49 233.5L351.27 233.66L351.05 233.82L350.82 233.97L350.59 234.11L350.35 234.24L350.11 234.36L349.87 234.47L349.62 234.57L349.37 234.66L349.12 234.74L348.86 234.82L348.61 234.88L348.35 234.93L348.09 234.97L347.83 235.01L347.57 235.03L347.3 235.05L347.04 235.05L346.78 235.05L346.52 235.03L346.26 235.01L345.99 234.97L345.74 234.93L345.48 234.88L345.22 234.82L344.97 234.74L344.71 234.66L344.47 234.57L344.22 234.47L343.97 234.36L343.73 234.24L343.5 234.11L343.26 233.97L343.04 233.82L342.81 233.66L342.59 233.5L342.38 233.32L342.17 233.13L341.97 232.93L320.84 211.66L320.46 211.24L320.11 210.8L319.81 210.35L319.54 209.88L319.31 209.39L319.12 208.89L318.97 208.38L318.85 207.86L318.78 207.33L318.74 206.81L318.74 206.28L318.78 205.75L318.85 205.23L318.97 204.71L319.12 204.2L319.31 203.7L319.54 203.21L319.81 202.74L320.11 202.28L320.46 201.85L320.84 201.43L321.25 201.05L321.68 200.7L322.14 200.4L322.61 200.13L323.09 199.9L323.59 199.7L324.09 199.55L324.61 199.44L325.13 199.36L325.65 199.32L326.18 199.32L326.7 199.36Z" id="f6Izn1XJIN"></path><path d="M301.22 224.75L301.57 224.78L301.92 224.83L302.27 224.9L302.62 224.99L302.96 225.1L303.3 225.22L303.63 225.36L303.96 225.52L304.28 225.7L304.59 225.89L304.9 226.1L305.2 226.33L305.48 226.58L305.76 226.84L345.89 267.26L346.15 267.54L346.4 267.83L346.63 268.13L346.84 268.43L347.03 268.75L347.2 269.07L347.36 269.4L347.5 269.74L347.62 270.08L347.73 270.42L347.82 270.77L347.89 271.12L347.94 271.48L347.97 271.84L347.99 272.19L347.99 272.55L347.97 272.91L347.94 273.27L347.89 273.62L347.82 273.97L347.73 274.32L347.62 274.67L347.5 275.01L347.36 275.34L347.2 275.67L347.03 276L346.84 276.31L346.63 276.62L346.4 276.92L346.15 277.21L345.89 277.48L345.75 277.62L345.61 277.75L345.47 277.87L345.33 278L345.18 278.11L345.03 278.22L344.88 278.33L344.73 278.44L344.57 278.53L344.41 278.63L344.25 278.72L344.09 278.81L343.93 278.89L343.76 278.96L343.6 279.04L343.43 279.11L343.26 279.17L343.09 279.23L342.92 279.28L342.75 279.33L342.58 279.38L342.4 279.42L342.23 279.46L342.05 279.49L341.88 279.52L341.7 279.55L341.52 279.56L341.35 279.58L341.17 279.59L340.99 279.6L340.81 279.6L340.64 279.6L340.46 279.59L340.28 279.58L340.1 279.56L339.93 279.55L339.75 279.52L339.58 279.49L339.4 279.46L339.23 279.42L339.05 279.38L338.88 279.33L338.71 279.28L338.54 279.23L338.37 279.17L338.2 279.11L338.03 279.04L337.87 278.96L337.7 278.89L337.54 278.81L337.38 278.72L337.22 278.63L337.06 278.53L336.9 278.44L336.75 278.33L336.6 278.22L336.45 278.11L336.3 278L336.16 277.87L336.02 277.75L335.88 277.62L335.74 277.48L295.61 237.07L295.34 236.79L295.1 236.5L294.87 236.2L294.66 235.89L294.47 235.58L294.29 235.26L294.14 234.93L294 234.59L293.87 234.25L293.77 233.9L293.68 233.56L293.61 233.2L293.56 232.85L293.52 232.49L293.51 232.13L293.51 231.78L293.52 231.42L293.56 231.06L293.61 230.71L293.68 230.35L293.77 230L293.87 229.66L294 229.32L294.14 228.98L294.29 228.65L294.47 228.33L294.66 228.01L294.87 227.71L295.1 227.41L295.34 227.12L295.61 226.84L295.88 226.58L296.17 226.33L296.47 226.1L296.77 225.89L297.08 225.7L297.4 225.52L297.73 225.36L298.06 225.22L298.4 225.1L298.75 224.99L299.09 224.9L299.44 224.83L299.8 224.78L300.15 224.75L300.5 224.73L300.86 224.73L301.22 224.75Z" id="a2bvXWXa9w"></path><path d="M276.24 250.18L276.76 250.25L277.27 250.37L277.78 250.52L278.28 250.72L278.76 250.95L279.23 251.22L279.68 251.52L280.12 251.87L280.53 252.25L301.66 273.53L302.04 273.95L302.38 274.38L302.68 274.84L302.95 275.31L303.18 275.8L303.37 276.3L303.52 276.81L303.64 277.33L303.71 277.85L303.75 278.38L303.75 278.91L303.71 279.44L303.64 279.96L303.52 280.48L303.37 280.99L303.18 281.49L302.95 281.98L302.68 282.45L302.38 282.9L302.04 283.34L301.66 283.75L301.45 283.95L301.24 284.14L301.03 284.32L300.81 284.49L300.59 284.64L300.36 284.79L300.13 284.93L299.89 285.06L299.65 285.18L299.4 285.29L299.16 285.39L298.91 285.48L298.65 285.57L298.4 285.64L298.14 285.7L297.89 285.75L297.63 285.8L297.37 285.83L297.1 285.86L296.84 285.87L296.58 285.87L296.32 285.87L296.05 285.86L295.79 285.83L295.53 285.8L295.27 285.75L295.01 285.7L294.76 285.64L294.5 285.57L294.25 285.48L294 285.39L293.75 285.29L293.51 285.18L293.27 285.06L293.03 284.93L292.8 284.79L292.57 284.64L292.35 284.49L292.13 284.32L291.91 284.14L291.7 283.95L291.5 283.75L270.38 262.48L269.99 262.06L269.65 261.63L269.35 261.17L269.08 260.7L268.85 260.21L268.66 259.71L268.51 259.2L268.39 258.68L268.32 258.16L268.28 257.63L268.28 257.1L268.32 256.57L268.39 256.05L268.51 255.53L268.66 255.02L268.85 254.52L269.08 254.03L269.35 253.56L269.65 253.1L269.99 252.67L270.38 252.25L270.79 251.87L271.22 251.52L271.67 251.22L272.14 250.95L272.63 250.72L273.12 250.52L273.63 250.37L274.14 250.25L274.66 250.18L275.19 250.14L275.71 250.14L276.24 250.18Z" id="a5pF5g0rO4"></path><path d="M251.53 275.67L252.04 275.78L252.55 275.94L253.04 276.13L253.53 276.36L254 276.63L254.45 276.93L254.88 277.28L255.29 277.66L276.42 298.94L276.81 299.36L277.15 299.79L277.45 300.25L277.72 300.72L277.95 301.21L278.14 301.71L278.29 302.22L278.41 302.74L278.48 303.26L278.52 303.79L278.52 304.32L278.48 304.85L278.41 305.37L278.29 305.89L278.14 306.4L277.95 306.9L277.72 307.39L277.45 307.86L277.15 308.32L276.81 308.75L276.42 309.17L276.22 309.36L276.01 309.55L275.8 309.73L275.58 309.9L275.35 310.05L275.13 310.2L274.89 310.34L274.66 310.47L274.42 310.59L274.17 310.7L273.93 310.8L273.68 310.89L273.42 310.98L273.17 311.05L272.91 311.11L272.65 311.16L272.4 311.21L272.14 311.24L271.87 311.26L271.61 311.28L271.35 311.28L271.09 311.28L270.83 311.26L270.56 311.24L270.3 311.21L270.04 311.16L269.79 311.11L269.53 311.05L269.27 310.98L269.02 310.89L268.77 310.8L268.53 310.7L268.28 310.59L268.04 310.47L267.8 310.34L267.57 310.2L267.34 310.05L267.12 309.9L266.9 309.73L266.68 309.55L266.48 309.36L266.27 309.17L245.14 287.89L244.76 287.47L244.42 287.04L244.11 286.58L243.85 286.11L243.62 285.62L243.43 285.12L243.27 284.61L243.16 284.09L243.08 283.57L243.05 283.04L243.05 282.51L243.08 281.98L243.16 281.46L243.27 280.94L243.43 280.43L243.62 279.93L243.85 279.44L244.11 278.97L244.42 278.52L244.76 278.08L245.14 277.66L245.56 277.28L245.99 276.93L246.44 276.63L246.91 276.36L247.4 276.13L247.89 275.94L248.4 275.78L248.91 275.67L249.43 275.59L249.96 275.55L250.48 275.55L251.01 275.59L251.53 275.67Z" id="a10obzhhhb"></path><path d="M225.88 301.01L226.23 301.07L226.58 301.14L226.93 301.23L227.27 301.33L227.61 301.45L227.94 301.6L228.27 301.75L228.59 301.93L228.9 302.12L229.21 302.34L229.5 302.57L229.79 302.81L230.07 303.08L270.2 343.49L270.46 343.77L270.7 344.06L270.93 344.36L271.14 344.67L271.34 344.98L271.51 345.3L271.67 345.63L271.81 345.97L271.93 346.31L272.04 346.66L272.12 347L272.19 347.36L272.25 347.71L272.28 348.07L272.3 348.43L272.3 348.78L272.28 349.14L272.25 349.5L272.19 349.85L272.12 350.21L272.04 350.56L271.93 350.9L271.81 351.24L271.67 351.58L271.51 351.91L271.34 352.23L271.14 352.54L270.93 352.85L270.7 353.15L270.46 353.44L270.2 353.72L270.06 353.85L269.92 353.98L269.78 354.11L269.63 354.23L269.49 354.34L269.34 354.46L269.19 354.56L269.03 354.67L268.88 354.77L268.72 354.86L268.56 354.95L268.4 355.04L268.24 355.12L268.07 355.2L267.91 355.27L267.74 355.34L267.57 355.4L267.4 355.46L267.23 355.52L267.06 355.57L266.88 355.61L266.71 355.66L266.54 355.69L266.36 355.73L266.18 355.76L266.01 355.78L265.83 355.8L265.65 355.82L265.48 355.83L265.3 355.83L265.12 355.84L264.94 355.83L264.76 355.83L264.59 355.82L264.41 355.8L264.23 355.78L264.06 355.76L263.88 355.73L263.7 355.69L263.53 355.66L263.36 355.61L263.18 355.57L263.01 355.52L262.84 355.46L262.67 355.4L262.5 355.34L262.33 355.27L262.17 355.2L262 355.12L261.84 355.04L261.68 354.95L261.52 354.86L261.36 354.77L261.21 354.67L261.05 354.56L260.9 354.46L260.75 354.34L260.61 354.23L260.46 354.11L260.32 353.98L260.18 353.85L260.04 353.72L219.91 313.3L219.65 313.02L219.4 312.73L219.18 312.43L218.97 312.13L218.77 311.81L218.6 311.49L218.44 311.16L218.3 310.82L218.18 310.48L218.07 310.14L217.99 309.79L217.92 309.43L217.86 309.08L217.83 308.72L217.81 308.37L217.81 308.01L217.83 307.65L217.86 307.29L217.92 306.94L217.99 306.59L218.07 306.24L218.18 305.89L218.3 305.55L218.44 305.22L218.6 304.89L218.77 304.56L218.97 304.25L219.18 303.94L219.4 303.64L219.65 303.35L219.91 303.08L220.19 302.81L220.48 302.57L220.77 302.34L221.08 302.12L221.39 301.93L221.71 301.75L222.04 301.6L222.37 301.45L222.71 301.33L223.05 301.23L223.4 301.14L223.75 301.07L224.1 301.01L224.46 300.98L224.81 300.96L225.17 300.96L225.52 300.98L225.88 301.01Z" id="inuFGh4Ov"></path></defs><g><g><g><use xlink:href="#nLTjbY0O" opacity="0.8" fill="#454545" fill-opacity="1"></use></g><g><use xlink:href="#b8jyiX4zU" opacity="1" fill="url(#gradientc3ArZ2INS)"></use><g clip-path="url(#clipauWRx6rEX)"><use xlink:href="#b8jyiX4zU" opacity="1" fill-opacity="0" stroke="#dbdbdb" stroke-width="20" stroke-opacity="1"></use></g></g><g><use xlink:href="#a2uybJUBsp" opacity="1" fill="#737373" fill-opacity="1"></use><g><use xlink:href="#a2uybJUBsp" opacity="1" fill-opacity="0" stroke="#000000" stroke-width="1" stroke-opacity="0"></use></g></g><g><use xlink:href="#c10IWsUwd5" opacity="1" fill="#737373" fill-opacity="1"></use><g><use xlink:href="#c10IWsUwd5" opacity="1" fill-opacity="0" stroke="#000000" stroke-width="5" stroke-opacity="0.99"></use></g></g><g><use xlink:href="#aaSb9s6ot" opacity="1" fill="#d7e4ef" fill-opacity="1"></use><g><use xlink:href="#aaSb9s6ot" opacity="1" fill-opacity="0" stroke="#000000" stroke-width="5" stroke-opacity="0.98"></use></g></g><g><use xlink:href="#b1fQXrGibv" opacity="1" fill="#d7e4ef" fill-opacity="1"></use><g><use xlink:href="#b1fQXrGibv" opacity="1" fill-opacity="0" stroke="#000000" stroke-width="8" stroke-opacity="1"></use></g></g><g><use xlink:href="#a4jzEAPngD" opacity="1" fill="#c1ccd6" fill-opacity="1"></use><g><use xlink:href="#a4jzEAPngD" opacity="1" fill-opacity="0" stroke="#000000" stroke-width="1" stroke-opacity="0"></use></g></g><g><use xlink:href="#ad7BG5cyq" opacity="1" fill="#5b9ed6" fill-opacity="1"></use><g><use xlink:href="#ad7BG5cyq" opacity="1" fill-opacity="0" stroke="#000000" stroke-width="1" stroke-opacity="0"></use></g></g><g><use xlink:href="#m3P2ysFvYO" opacity="1" fill="#4f8aba" fill-opacity="1"></use><g><use xlink:href="#m3P2ysFvYO" opacity="1" fill-opacity="0" stroke="#000000" stroke-width="1" stroke-opacity="0"></use></g></g><g><use xlink:href="#f6AzUqTiHh" opacity="1" fill="#b1bac4" fill-opacity="1"></use><g><use xlink:href="#f6AzUqTiHh" opacity="1" fill-opacity="0" stroke="#000000" stroke-width="1" stroke-opacity="0"></use></g></g><g><use xlink:href="#aHnVG6GqP" opacity="1" fill="#8f969e" fill-opacity="1"></use><g><use xlink:href="#aHnVG6GqP" opacity="1" fill-opacity="0" stroke="#000000" stroke-width="1" stroke-opacity="0"></use></g></g><g><use xlink:href="#clQ4cx8l9" opacity="1" fill="#bdbdbd" fill-opacity="1"></use><g><use xlink:href="#clQ4cx8l9" opacity="1" fill-opacity="0" stroke="#000000" stroke-width="1" stroke-opacity="0"></use></g></g><g><use xlink:href="#eh38Zz1B0" opacity="1" fill="#a1a1a1" fill-opacity="1"></use><g><use xlink:href="#eh38Zz1B0" opacity="1" fill-opacity="0" stroke="#000000" stroke-width="1" stroke-opacity="0"></use></g></g><g><use xlink:href="#apwLErH3t" opacity="1" fill="#737373" fill-opacity="1"></use><g><use xlink:href="#apwLErH3t" opacity="1" fill-opacity="0" stroke="#000000" stroke-width="1" stroke-opacity="0"></use></g></g><g><use xlink:href="#f6Izn1XJIN" opacity="1" fill="#737373" fill-opacity="1"></use><g><use xlink:href="#f6Izn1XJIN" opacity="1" fill-opacity="0" stroke="#000000" stroke-width="1" stroke-opacity="0"></use></g></g><g><use xlink:href="#a2bvXWXa9w" opacity="1" fill="#737373" fill-opacity="1"></use><g><use xlink:href="#a2bvXWXa9w" opacity="1" fill-opacity="0" stroke="#000000" stroke-width="1" stroke-opacity="0"></use></g></g><g><use xlink:href="#a5pF5g0rO4" opacity="1" fill="#737373" fill-opacity="1"></use><g><use xlink:href="#a5pF5g0rO4" opacity="1" fill-opacity="0" stroke="#000000" stroke-width="1" stroke-opacity="0"></use></g></g><g><use xlink:href="#a10obzhhhb" opacity="1" fill="#737373" fill-opacity="1"></use><g><use xlink:href="#a10obzhhhb" opacity="1" fill-opacity="0" stroke="#000000" stroke-width="1" stroke-opacity="0"></use></g></g><g><use xlink:href="#inuFGh4Ov" opacity="1" fill="#737373" fill-opacity="1"></use><g><use xlink:href="#inuFGh4Ov" opacity="1" fill-opacity="0" stroke="#000000" stroke-width="1" stroke-opacity="0"></use></g></g></g></g></svg>