<?xml version="1.0" encoding="UTF-8" standalone="no"?>
<!DOCTYPE svg PUBLIC "-//W3C//DTD SVG 1.1//EN" "http://www.w3.org/Graphics/SVG/1.1/DTD/svg11.dtd">
<svg version="1.1" xmlns="http://www.w3.org/2000/svg" xmlns:xlink="http://www.w3.org/1999/xlink" preserveAspectRatio="xMidYMid meet" viewBox="0 0 640 640" width="35" height="35"><defs><path d="M470 20C552.84 20 620 87.16 620 170C620 260 620 380 620 470C620 552.84 552.84 620 470 620C380 620 260 620 170 620C87.16 620 20 552.84 20 470C20 380 20 260 20 170C20 87.16 87.16 20 170 20C260 20 380 20 470 20Z" id="c7aqLbrV7K"></path><path d="M450 0C532.84 0 600 67.16 600 150C600 240 600 360 600 450C600 532.84 532.84 600 450 600C360 600 240 600 150 600C67.16 600 0 532.84 0 450C0 360 0 240 0 150C0 67.16 67.16 0 150 0C240 0 360 0 450 0Z" id="c1tiaVHLeU"></path><linearGradient id="gradienta1ptIixi1v" gradientUnits="userSpaceOnUse" x1="555.81" y1="59.8" x2="45.39" y2="569.38"><stop style="stop-color: #ff5077;stop-opacity: 1" offset="0%"></stop><stop style="stop-color: #2b2e38;stop-opacity: 1" offset="100%"></stop><stop style="stop-color: #010000;stop-opacity: 1" offset="100%"></stop></linearGradient><clipPath id="clipahuGdKyN"><use xlink:href="#c1tiaVHLeU" opacity="1"></use></clipPath><path d="M118.96 344.36C118.96 344.57 118.91 344.89 118.8 345.32C118.69 345.74 118.64 346.05 118.64 346.27C118.64 361.6 118.64 484.22 118.64 499.55C118.64 505.09 120.66 509.88 124.71 513.92C128.75 517.96 133.54 520 139.08 520C147.25 520 188.12 520 261.7 520L261.7 397.37L343.46 397.37L343.46 520C417.03 520 457.9 520 466.08 520C471.61 520 476.41 517.97 480.45 513.92C484.49 509.89 486.52 505.09 486.52 499.55C486.52 484.22 486.52 361.6 486.52 346.27C486.52 345.42 486.41 344.78 486.2 344.36C473.96 334.27 412.75 283.81 302.58 192.99C192.41 283.81 131.2 334.27 118.96 344.36Z" id="b9DH8zJlsE"></path><path d="M486.52 251.75C486.52 173.57 486.52 130.14 486.52 121.46C486.52 118.48 485.56 116.03 483.64 114.11C481.73 112.2 479.28 111.24 476.3 111.24C470.17 111.24 421.12 111.24 414.99 111.24C412 111.24 409.55 112.2 407.64 114.11C405.72 116.03 404.77 118.48 404.77 121.46C404.77 125.61 404.77 146.37 404.77 183.73C358.02 144.64 332.04 122.92 326.85 118.58C320.04 113.05 311.95 110.28 302.58 110.28C293.22 110.28 285.13 113.05 278.31 118.58C255.35 137.71 71.66 290.74 48.7 309.87C46.57 311.57 45.41 313.86 45.19 316.73C44.97 319.61 45.72 322.11 47.42 324.24C49.4 326.6 65.24 345.51 67.22 347.87C68.93 349.79 71.16 350.96 73.93 351.39C76.48 351.6 79.04 350.86 81.6 349.15C96.33 336.87 169.99 275.45 302.58 164.89C435.17 275.45 508.83 336.87 523.56 349.15C525.27 350.64 527.5 351.38 530.27 351.38C530.36 351.38 531.13 351.38 531.23 351.38C533.99 350.96 536.22 349.78 537.93 347.87C539.91 345.51 555.75 326.6 557.74 324.24C559.44 322.11 560.18 319.6 559.96 316.73C559.74 313.86 558.57 311.57 556.45 309.87C547.12 302.12 523.81 282.75 486.52 251.75Z" id="a1jYUr7C4p"></path><path d="M353.63 246.54L445.47 101.9L329.76 101.9L221.28 318.86L306.62 318.86L221.28 521.35L452.7 246.54L353.63 246.54Z" id="b39vihwPKj"></path><path d="M329.76 101.9L221.28 318.86L250.21 318.86L358.69 101.9L329.76 101.9Z" id="b1HmrUSmW7"></path><path d="M242.98 452.65L214.05 521.35L445.47 246.54L416.54 246.54L242.98 452.65Z" id="e4mMkfUb7X"></path><path d="M445.9 94.68L446.11 94.69L446.32 94.71L446.52 94.74L446.72 94.76L446.92 94.8L447.12 94.84L447.31 94.88L447.51 94.93L447.69 94.98L447.88 95.04L448.06 95.1L448.24 95.17L448.42 95.24L448.6 95.32L448.77 95.4L448.94 95.48L449.1 95.57L449.27 95.66L449.43 95.76L449.59 95.86L449.74 95.97L449.9 96.07L450.05 96.19L450.2 96.3L450.34 96.42L450.48 96.55L450.62 96.67L450.76 96.8L450.89 96.94L451.03 97.08L451.15 97.22L451.28 97.36L451.4 97.51L451.52 97.66L451.64 97.81L451.76 97.96L451.87 98.12L451.98 98.28L452.09 98.45L452.19 98.62L452.28 98.78L452.37 98.96L452.45 99.13L452.53 99.31L452.61 99.48L452.67 99.66L452.74 99.84L452.79 100.03L452.85 100.21L452.89 100.39L452.93 100.58L452.97 100.77L453 100.95L453.02 101.14L453.04 101.33L453.05 101.52L453.06 101.71L453.07 101.9L453.06 102.09L453.05 102.28L453.04 102.47L453.02 102.66L453 102.85L452.97 103.03L452.93 103.22L452.89 103.41L452.85 103.59L452.79 103.78L452.74 103.96L452.67 104.14L452.61 104.32L452.53 104.5L452.45 104.67L452.37 104.85L452.28 105.02L452.19 105.19L452.09 105.35L451.98 105.52L367.37 239.31L452.7 239.31L452.92 239.31L453.13 239.32L453.34 239.33L453.55 239.35L453.75 239.37L453.96 239.4L454.16 239.44L454.35 239.48L454.55 239.53L454.74 239.58L454.93 239.63L455.11 239.7L455.29 239.76L455.47 239.84L455.65 239.92L455.83 240L456 240.09L456.17 240.19L456.34 240.29L456.5 240.39L456.66 240.5L456.82 240.62L456.98 240.74L457.13 240.87L457.28 241L457.43 241.14L457.57 241.28L457.71 241.43L457.85 241.59L457.99 241.75L458.13 241.91L458.26 242.08L458.39 242.26L458.51 242.44L458.64 242.63L458.76 242.82L458.87 243.02L458.99 243.22L459.1 243.43L459.21 243.65L459.32 243.86L459.41 244.08L459.5 244.3L459.58 244.51L459.66 244.73L459.72 244.94L459.78 245.16L459.83 245.38L459.88 245.59L459.91 245.8L459.94 246.02L459.97 246.23L459.98 246.44L460 246.65L460 246.86L460 247.07L459.99 247.28L459.98 247.48L459.96 247.69L459.93 247.89L459.91 248.1L459.87 248.3L459.83 248.5L459.78 248.7L459.73 248.89L459.68 249.09L459.62 249.28L459.56 249.47L459.49 249.66L459.42 249.85L459.34 250.03L459.26 250.22L459.17 250.4L459.09 250.58L458.99 250.75L458.9 250.93L458.8 251.1L458.7 251.27L458.6 251.44L458.49 251.6L227.07 526.41L226.96 526.52L226.85 526.62L226.73 526.72L226.61 526.82L226.49 526.92L226.37 527.01L226.25 527.1L226.12 527.19L225.99 527.28L225.86 527.36L225.73 527.44L225.59 527.52L225.45 527.59L225.32 527.66L225.17 527.73L225.03 527.8L224.89 527.86L224.74 527.92L224.6 527.98L224.45 528.04L224.3 528.09L224.15 528.14L223.99 528.19L223.84 528.23L223.69 528.28L223.53 528.32L223.37 528.35L223.22 528.39L223.06 528.42L222.9 528.45L222.74 528.47L222.58 528.49L222.42 528.51L222.26 528.53L222.1 528.55L221.93 528.56L221.77 528.57L221.61 528.58L221.45 528.58L221.28 528.58L221.18 528.58L221.07 528.58L220.96 528.58L220.85 528.58L220.74 528.58L220.64 528.58L220.53 528.58L220.42 528.58L220.32 528.57L220.21 528.57L220.11 528.57L220 528.56L219.9 528.56L219.8 528.55L219.69 528.54L219.59 528.53L219.5 528.53L219.4 528.52L219.3 528.5L219.2 528.49L219.11 528.48L219.02 528.46L218.93 528.44L218.84 528.42L218.75 528.4L218.66 528.38L218.58 528.36L218.49 528.33L218.41 528.31L218.33 528.28L218.26 528.24L218.18 528.21L218.11 528.18L218.04 528.14L217.97 528.1L217.91 528.05L217.84 528.01L217.78 527.96L217.72 527.91L217.67 527.86L217.45 527.69L217.24 527.52L217.04 527.35L216.84 527.17L216.65 526.98L216.47 526.79L216.29 526.6L216.12 526.4L215.95 526.2L215.79 525.99L215.64 525.79L215.49 525.57L215.36 525.36L215.22 525.14L215.1 524.92L214.98 524.7L214.87 524.47L214.77 524.25L214.68 524.02L214.59 523.79L214.52 523.56L214.45 523.33L214.39 523.09L214.34 522.86L214.29 522.62L214.26 522.39L214.23 522.15L214.22 521.92L214.21 521.69L214.21 521.45L214.22 521.22L214.24 520.98L214.27 520.75L214.31 520.52L214.37 520.29L214.43 520.07L214.5 519.84L214.58 519.62L214.67 519.4L214.78 519.18L295.77 326.09L221.28 326.09L221.12 326.09L220.95 326.08L220.78 326.06L220.61 326.05L220.44 326.02L220.27 325.99L220.09 325.96L219.91 325.92L219.73 325.88L219.55 325.83L219.37 325.78L219.19 325.72L219.01 325.66L218.83 325.59L218.65 325.52L218.47 325.44L218.29 325.36L218.11 325.28L217.94 325.19L217.76 325.09L217.58 325L217.41 324.9L217.24 324.79L217.07 324.68L216.9 324.57L216.73 324.45L216.57 324.33L216.41 324.21L216.25 324.08L216.1 323.95L215.95 323.82L215.8 323.68L215.66 323.54L215.52 323.4L215.38 323.25L215.25 323.1L215.12 322.95L215 322.79L214.89 322.63L214.78 322.47L214.67 322.31L214.57 322.14L214.47 321.97L214.38 321.8L214.3 321.63L214.22 321.45L214.15 321.28L214.08 321.1L214.02 320.91L213.96 320.73L213.91 320.55L213.86 320.36L213.82 320.18L213.79 319.99L213.76 319.8L213.73 319.61L213.71 319.43L213.7 319.24L213.69 319.05L213.69 318.86L213.69 318.67L213.7 318.48L213.71 318.29L213.73 318.1L213.76 317.91L213.79 317.72L213.82 317.54L213.86 317.35L213.91 317.16L213.96 316.98L214.02 316.8L214.08 316.62L214.15 316.44L214.22 316.26L214.3 316.09L214.38 315.91L214.47 315.74L214.57 315.57L214.67 315.41L214.78 315.24L323.25 98.28L323.36 98.12L323.48 97.96L323.59 97.81L323.71 97.66L323.83 97.51L323.95 97.36L324.08 97.22L324.21 97.08L324.34 96.94L324.47 96.8L324.61 96.67L324.75 96.55L324.89 96.42L325.04 96.3L325.19 96.19L325.34 96.07L325.49 95.97L325.65 95.86L325.8 95.76L325.97 95.66L326.13 95.57L326.3 95.48L326.47 95.4L326.64 95.32L326.81 95.24L326.99 95.17L327.17 95.1L327.35 95.04L327.54 94.98L327.73 94.93L327.92 94.88L328.11 94.84L328.31 94.8L328.51 94.76L328.71 94.74L328.92 94.71L329.12 94.69L329.33 94.68L329.55 94.67L329.76 94.67L445.47 94.67L445.69 94.67L445.9 94.68ZM232.85 311.62L306.62 311.62L306.78 311.63L306.94 311.64L307.11 311.65L307.27 311.67L307.43 311.69L307.59 311.72L307.75 311.75L307.92 311.79L308.08 311.83L308.24 311.87L308.39 311.92L308.55 311.98L308.71 312.03L308.87 312.09L309.02 312.16L309.18 312.23L309.33 312.3L309.48 312.37L309.63 312.45L309.78 312.53L309.93 312.61L310.08 312.7L310.22 312.78L310.37 312.87L310.51 312.97L310.65 313.06L310.79 313.16L310.93 313.25L311.06 313.35L311.2 313.46L311.33 313.56L311.46 313.66L311.58 313.77L311.71 313.87L311.83 313.98L311.95 314.09L312.07 314.19L312.18 314.3L312.3 314.41L312.41 314.52L312.51 314.68L312.61 314.84L312.71 315.01L312.8 315.17L312.88 315.33L312.96 315.49L313.04 315.66L313.11 315.82L313.17 315.98L313.23 316.14L313.29 316.31L313.34 316.47L313.38 316.63L313.42 316.8L313.46 316.96L313.49 317.12L313.52 317.28L313.55 317.45L313.57 317.61L313.58 317.77L313.59 317.93L313.6 318.1L313.6 318.26L313.6 318.42L313.6 318.59L313.59 318.75L313.58 318.91L313.56 319.07L313.55 319.24L313.52 319.4L313.5 319.56L313.47 319.72L313.44 319.89L313.4 320.05L313.36 320.21L313.32 320.38L313.28 320.54L313.23 320.7L313.18 320.86L313.13 321.03L246.59 480.13L437.52 253.77L353.63 253.77L353.41 253.77L353.2 253.76L352.99 253.75L352.78 253.73L352.58 253.7L352.37 253.67L352.17 253.64L351.98 253.6L351.78 253.56L351.59 253.51L351.4 253.46L351.22 253.4L351.04 253.34L350.85 253.27L350.68 253.2L350.5 253.12L350.33 253.04L350.16 252.96L349.99 252.87L349.83 252.78L349.67 252.68L349.51 252.58L349.35 252.47L349.2 252.36L349.05 252.25L348.9 252.13L348.76 252.01L348.61 251.89L348.47 251.76L348.34 251.63L348.2 251.5L348.07 251.36L347.94 251.22L347.82 251.08L347.69 250.93L347.57 250.78L347.46 250.63L347.34 250.47L347.23 250.31L347.12 250.15L347.01 249.99L346.91 249.82L346.82 249.65L346.73 249.48L346.64 249.31L346.56 249.13L346.49 248.96L346.42 248.78L346.36 248.6L346.3 248.41L346.25 248.23L346.21 248.04L346.17 247.86L346.13 247.67L346.1 247.48L346.08 247.3L346.06 247.11L346.04 246.92L346.04 246.73L346.03 246.54L346.04 246.35L346.04 246.16L346.06 245.97L346.08 245.78L346.1 245.59L346.13 245.4L346.17 245.22L346.21 245.03L346.25 244.85L346.3 244.66L346.36 244.48L346.42 244.3L346.49 244.12L346.56 243.94L346.64 243.77L346.73 243.59L346.82 243.42L346.91 243.25L347.01 243.09L347.12 242.92L432.45 109.13L334.1 109.13L232.85 311.62Z" id="b1uUxnVfAR"></path></defs><g><g><g><use xlink:href="#c7aqLbrV7K" opacity="0.8" fill="#454545" fill-opacity="1"></use></g><g><use xlink:href="#c1tiaVHLeU" opacity="1" fill="url(#gradienta1ptIixi1v)"></use><g clip-path="url(#clipahuGdKyN)"><use xlink:href="#c1tiaVHLeU" opacity="1" fill-opacity="0" stroke="#dbdbdb" stroke-width="20" stroke-opacity="1"></use></g></g><g><use xlink:href="#b9DH8zJlsE" opacity="1" fill="#010481" fill-opacity="1"></use><g><use xlink:href="#b9DH8zJlsE" opacity="1" fill-opacity="0" stroke="#d4d4d4" stroke-width="5" stroke-opacity="1"></use></g></g><g><use xlink:href="#a1jYUr7C4p" opacity="1" fill="#010481" fill-opacity="1"></use><g><use xlink:href="#a1jYUr7C4p" opacity="1" fill-opacity="0" stroke="#d4d4d4" stroke-width="5" stroke-opacity="1"></use></g></g><g><use xlink:href="#b39vihwPKj" opacity="1" fill="#ffdd09" fill-opacity="1"></use><g><use xlink:href="#b39vihwPKj" opacity="1" fill-opacity="0" stroke="#000000" stroke-width="1" stroke-opacity="0"></use></g></g><g><use xlink:href="#b1HmrUSmW7" opacity="1" fill="#ffffff" fill-opacity="1"></use><g><use xlink:href="#b1HmrUSmW7" opacity="1" fill-opacity="0" stroke="#000000" stroke-width="1" stroke-opacity="0"></use></g></g><g><use xlink:href="#e4mMkfUb7X" opacity="1" fill="#fd9808" fill-opacity="1"></use><g><use xlink:href="#e4mMkfUb7X" opacity="1" fill-opacity="0" stroke="#000000" stroke-width="1" stroke-opacity="0"></use></g></g><g><use xlink:href="#b1uUxnVfAR" opacity="1" fill="#000000" fill-opacity="1"></use><g><use xlink:href="#b1uUxnVfAR" opacity="1" fill-opacity="0" stroke="#000000" stroke-width="1" stroke-opacity="0"></use></g></g></g></g></svg>